# MagicaVoxel @ Ephtracy

# group
o 

# material
mtllib Plant1Peashooter.mtl
usemtl palette

# normals
vn -1 0 0
vn 1 0 0
vn 0 0 1
vn 0 0 -1
vn 0 -1 0
vn 0 1 0

# texcoords
vt 0.00195313 0.5
vt 0.443359 0.5
vt 0.876953 0.5
vt 0.888672 0.5

# verts
v 1 2.3 -1.9
v 1 2.3 -2
v 1 2.5 -1.9
v 1 2.5 -2
v 1.1 2.2 -1.9
v 1.1 2.2 -2
v 1.1 2.3 -1.9
v 1.1 2.3 -2
v 1.1 2.5 -1.9
v 1.1 2.5 -2
v 1.1 2.6 -1.9
v 1.1 2.6 -2
v 1.2 2.1 -1.9
v 1.2 2.1 -2
v 1.2 2.2 -1.9
v 1.2 2.2 -2
v 1.3 3.7 -1.9
v 1.3 3.7 -2
v 1.3 4.3 -1.9
v 1.3 4.3 -2
v 1.4 3.5 -1.9
v 1.4 3.5 -2
v 1.4 3.7 -1.9
v 1.4 3.7 -2
v 1.4 4.3 -1.9
v 1.4 4.3 -2
v 1.4 4.5 -1.9
v 1.4 4.5 -2
v 1.5 3.4 -1.9
v 1.5 3.4 -2
v 1.5 3.5 -1.9
v 1.5 3.5 -2
v 1.5 4.5 -1.9
v 1.5 4.5 -2
v 1.5 4.6 -1.9
v 1.5 4.6 -2
v 1.6 2 -1.9
v 1.6 2 -2
v 1.6 2.1 -1.9
v 1.6 2.1 -2
v 1.6 3.3 -1.9
v 1.6 3.3 -2
v 1.6 3.4 -1.9
v 1.6 3.4 -2
v 1.6 4.6 -1.9
v 1.6 4.6 -2
v 1.6 4.7 -1.9
v 1.6 4.7 -2
v 1.8 3.2 -1.9
v 1.8 3.2 -2
v 1.8 3.3 -1.9
v 1.8 3.3 -2
v 1.9 2.4 -1.9
v 1.9 2.4 -2
v 1.9 3.2 -1.9
v 1.9 3.2 -2
v 2.3 2.4 -1.9
v 2.3 2.4 -2
v 2.3 2.5 -1.9
v 2.3 2.5 -2
v 2.4 2.5 -1.9
v 2.4 2.5 -2
v 2.4 2.6 -1.9
v 2.4 2.6 -2
v 3.1 3.5 -1.9
v 3.1 3.5 -2
v 3.1 3.6 -1.9
v 3.1 3.6 -2
v 3.1 4.4 -1.9
v 3.1 4.4 -2
v 3.1 4.5 -1.9
v 3.1 4.5 -2
v 1.6 2.5 -1.9
v 1.6 2.5 -2
v 1.6 2.6 -1.9
v 1.6 2.6 -2
v 1.7 2.4 -1.9
v 1.7 2.4 -2
v 1.7 2.5 -1.9
v 1.7 2.5 -2
v 2.1 2.4 -1.9
v 2.1 2.4 -2
v 2.1 3.2 -1.9
v 2.1 3.2 -2
v 2.2 3.2 -1.9
v 2.2 3.2 -2
v 2.2 3.3 -1.9
v 2.2 3.3 -2
v 2.4 2 -1.9
v 2.4 2 -2
v 2.4 2.1 -1.9
v 2.4 2.1 -2
v 2.4 3.3 -1.9
v 2.4 3.3 -2
v 2.4 3.4 -1.9
v 2.4 3.4 -2
v 2.4 4.6 -1.9
v 2.4 4.6 -2
v 2.4 4.7 -1.9
v 2.4 4.7 -2
v 2.6 3.4 -1.9
v 2.6 3.4 -2
v 2.6 3.5 -1.9
v 2.6 3.5 -2
v 2.6 4.5 -1.9
v 2.6 4.5 -2
v 2.6 4.6 -1.9
v 2.6 4.6 -2
v 2.8 2.1 -1.9
v 2.8 2.1 -2
v 2.8 2.2 -1.9
v 2.8 2.2 -2
v 2.8 3.5 -1.9
v 2.8 3.5 -2
v 2.8 3.6 -1.9
v 2.8 3.6 -2
v 2.8 4.4 -1.9
v 2.8 4.4 -2
v 2.8 4.5 -1.9
v 2.8 4.5 -2
v 2.9 2.2 -1.9
v 2.9 2.2 -2
v 2.9 2.3 -1.9
v 2.9 2.3 -2
v 2.9 2.5 -1.9
v 2.9 2.5 -2
v 2.9 2.6 -1.9
v 2.9 2.6 -2
v 3 2.3 -1.9
v 3 2.3 -2
v 3 2.5 -1.9
v 3 2.5 -2
v 3.3 3.5 -1.9
v 3.3 3.5 -2
v 3.3 3.6 -1.9
v 3.3 3.6 -2
v 3.3 4.4 -1.9
v 3.3 4.4 -2
v 3.3 4.5 -1.9
v 3.3 4.5 -2
v 3.4 3.6 -1.9
v 3.4 3.6 -2
v 3.4 3.8 -1.9
v 3.4 3.8 -2
v 3.4 4.2 -1.9
v 3.4 4.2 -2
v 3.4 4.4 -1.9
v 3.4 4.4 -2
v 3.5 3.8 -1.9
v 3.5 3.8 -2
v 3.5 4.2 -1.9
v 3.5 4.2 -2
v 1 2.3 -1.9
v 1 2.5 -1.9
v 1.1 2.2 -1.9
v 1.1 2.3 -1.9
v 1.1 2.5 -1.9
v 1.1 2.6 -1.9
v 1.2 2.1 -1.9
v 1.2 2.2 -1.9
v 1.2 2.4 -1.9
v 1.2 2.5 -1.9
v 1.3 2.3 -1.9
v 1.3 2.4 -1.9
v 1.3 2.5 -1.9
v 1.3 3.7 -1.9
v 1.3 4.3 -1.9
v 1.4 3.5 -1.9
v 1.4 3.7 -1.9
v 1.4 4.3 -1.9
v 1.4 4.5 -1.9
v 1.5 2.2 -1.9
v 1.5 2.3 -1.9
v 1.5 2.4 -1.9
v 1.5 3.4 -1.9
v 1.5 3.5 -1.9
v 1.5 4.5 -1.9
v 1.5 4.6 -1.9
v 1.6 2 -1.9
v 1.6 2.1 -1.9
v 1.6 2.5 -1.9
v 1.6 2.6 -1.9
v 1.6 3.3 -1.9
v 1.6 3.4 -1.9
v 1.6 4.6 -1.9
v 1.6 4.7 -1.9
v 1.7 2.1 -1.9
v 1.7 2.2 -1.9
v 1.7 2.3 -1.9
v 1.7 2.4 -1.9
v 1.7 2.5 -1.9
v 1.8 3.2 -1.9
v 1.8 3.3 -1.9
v 1.9 2.1 -1.9
v 1.9 2.2 -1.9
v 1.9 2.4 -1.9
v 1.9 3.2 -1.9
v 2.1 2.1 -1.9
v 2.1 2.2 -1.9
v 2.1 2.4 -1.9
v 2.1 3.2 -1.9
v 2.1 4 -1.9
v 2.1 4.2 -1.9
v 2.1 4.3 -1.9
v 2.2 3.2 -1.9
v 2.2 3.3 -1.9
v 2.2 4.2 -1.9
v 2.2 4.3 -1.9
v 2.3 2.1 -1.9
v 2.3 2.2 -1.9
v 2.3 2.3 -1.9
v 2.3 2.4 -1.9
v 2.3 2.5 -1.9
v 2.4 2 -1.9
v 2.4 2.1 -1.9
v 2.4 2.5 -1.9
v 2.4 2.6 -1.9
v 2.4 3.3 -1.9
v 2.4 3.4 -1.9
v 2.4 4 -1.9
v 2.4 4.3 -1.9
v 2.4 4.6 -1.9
v 2.4 4.7 -1.9
v 2.5 2.2 -1.9
v 2.5 2.3 -1.9
v 2.5 2.4 -1.9
v 2.6 3.4 -1.9
v 2.6 3.5 -1.9
v 2.6 4.2 -1.9
v 2.6 4.3 -1.9
v 2.6 4.4 -1.9
v 2.6 4.5 -1.9
v 2.6 4.6 -1.9
v 2.7 2.3 -1.9
v 2.7 2.4 -1.9
v 2.7 2.5 -1.9
v 2.7 4.3 -1.9
v 2.7 4.4 -1.9
v 2.8 2.1 -1.9
v 2.8 2.2 -1.9
v 2.8 2.4 -1.9
v 2.8 2.5 -1.9
v 2.8 3.5 -1.9
v 2.8 3.6 -1.9
v 2.8 4.2 -1.9
v 2.8 4.4 -1.9
v 2.8 4.5 -1.9
v 2.9 2.2 -1.9
v 2.9 2.3 -1.9
v 2.9 2.5 -1.9
v 2.9 2.6 -1.9
v 3 2.3 -1.9
v 3 2.5 -1.9
v 3 3.8 -1.9
v 3 4.2 -1.9
v 3.1 3.5 -1.9
v 3.1 3.6 -1.9
v 3.1 3.8 -1.9
v 3.1 4.2 -1.9
v 3.1 4.4 -1.9
v 3.1 4.5 -1.9
v 3.3 3.5 -1.9
v 3.3 3.6 -1.9
v 3.3 3.8 -1.9
v 3.3 4.2 -1.9
v 3.3 4.4 -1.9
v 3.3 4.5 -1.9
v 3.4 3.6 -1.9
v 3.4 3.8 -1.9
v 3.4 4.2 -1.9
v 3.4 4.4 -1.9
v 3.5 3.8 -1.9
v 3.5 4.2 -1.9
v 1 2.3 -2
v 1 2.5 -2
v 1.1 2.2 -2
v 1.1 2.3 -2
v 1.1 2.5 -2
v 1.1 2.6 -2
v 1.2 2.1 -2
v 1.2 2.2 -2
v 1.2 2.4 -2
v 1.2 2.5 -2
v 1.3 2.3 -2
v 1.3 2.4 -2
v 1.3 2.5 -2
v 1.3 3.7 -2
v 1.3 4.3 -2
v 1.4 3.5 -2
v 1.4 3.7 -2
v 1.4 4.3 -2
v 1.4 4.5 -2
v 1.5 2.2 -2
v 1.5 2.3 -2
v 1.5 2.4 -2
v 1.5 3.4 -2
v 1.5 3.5 -2
v 1.5 4.5 -2
v 1.5 4.6 -2
v 1.6 2 -2
v 1.6 2.1 -2
v 1.6 2.5 -2
v 1.6 2.6 -2
v 1.6 3.3 -2
v 1.6 3.4 -2
v 1.6 4.6 -2
v 1.6 4.7 -2
v 1.7 2.1 -2
v 1.7 2.2 -2
v 1.7 2.3 -2
v 1.7 2.4 -2
v 1.7 2.5 -2
v 1.8 3.2 -2
v 1.8 3.3 -2
v 1.9 2.1 -2
v 1.9 2.2 -2
v 1.9 2.4 -2
v 1.9 3.2 -2
v 2.1 2.1 -2
v 2.1 2.2 -2
v 2.1 2.4 -2
v 2.1 3.2 -2
v 2.1 4 -2
v 2.1 4.2 -2
v 2.1 4.3 -2
v 2.2 3.2 -2
v 2.2 3.3 -2
v 2.2 4.2 -2
v 2.2 4.3 -2
v 2.3 2.1 -2
v 2.3 2.2 -2
v 2.3 2.3 -2
v 2.3 2.4 -2
v 2.3 2.5 -2
v 2.4 2 -2
v 2.4 2.1 -2
v 2.4 2.5 -2
v 2.4 2.6 -2
v 2.4 3.3 -2
v 2.4 3.4 -2
v 2.4 4 -2
v 2.4 4.3 -2
v 2.4 4.6 -2
v 2.4 4.7 -2
v 2.5 2.2 -2
v 2.5 2.3 -2
v 2.5 2.4 -2
v 2.6 3.4 -2
v 2.6 3.5 -2
v 2.6 4.2 -2
v 2.6 4.3 -2
v 2.6 4.4 -2
v 2.6 4.5 -2
v 2.6 4.6 -2
v 2.7 2.3 -2
v 2.7 2.4 -2
v 2.7 2.5 -2
v 2.7 4.3 -2
v 2.7 4.4 -2
v 2.8 2.1 -2
v 2.8 2.2 -2
v 2.8 2.4 -2
v 2.8 2.5 -2
v 2.8 3.5 -2
v 2.8 3.6 -2
v 2.8 4.2 -2
v 2.8 4.4 -2
v 2.8 4.5 -2
v 2.9 2.2 -2
v 2.9 2.3 -2
v 2.9 2.5 -2
v 2.9 2.6 -2
v 3 2.3 -2
v 3 2.5 -2
v 3 3.8 -2
v 3 4.2 -2
v 3.1 3.5 -2
v 3.1 3.6 -2
v 3.1 3.8 -2
v 3.1 4.2 -2
v 3.1 4.4 -2
v 3.1 4.5 -2
v 3.3 3.5 -2
v 3.3 3.6 -2
v 3.3 3.8 -2
v 3.3 4.2 -2
v 3.3 4.4 -2
v 3.3 4.5 -2
v 3.4 3.6 -2
v 3.4 3.8 -2
v 3.4 4.2 -2
v 3.4 4.4 -2
v 3.5 3.8 -2
v 3.5 4.2 -2
v 1.6 2 -1.9
v 2.4 2 -1.9
v 1.6 2 -2
v 2.4 2 -2
v 1.2 2.1 -1.9
v 1.6 2.1 -1.9
v 2.4 2.1 -1.9
v 2.8 2.1 -1.9
v 1.2 2.1 -2
v 1.6 2.1 -2
v 2.4 2.1 -2
v 2.8 2.1 -2
v 1.1 2.2 -1.9
v 1.2 2.2 -1.9
v 2.8 2.2 -1.9
v 2.9 2.2 -1.9
v 1.1 2.2 -2
v 1.2 2.2 -2
v 2.8 2.2 -2
v 2.9 2.2 -2
v 1 2.3 -1.9
v 1.1 2.3 -1.9
v 2.9 2.3 -1.9
v 3 2.3 -1.9
v 1 2.3 -2
v 1.1 2.3 -2
v 2.9 2.3 -2
v 3 2.3 -2
v 1.8 3.2 -1.9
v 1.9 3.2 -1.9
v 2.1 3.2 -1.9
v 2.2 3.2 -1.9
v 1.8 3.2 -2
v 1.9 3.2 -2
v 2.1 3.2 -2
v 2.2 3.2 -2
v 1.6 3.3 -1.9
v 1.8 3.3 -1.9
v 2.2 3.3 -1.9
v 2.4 3.3 -1.9
v 1.6 3.3 -2
v 1.8 3.3 -2
v 2.2 3.3 -2
v 2.4 3.3 -2
v 1.5 3.4 -1.9
v 1.6 3.4 -1.9
v 2.4 3.4 -1.9
v 2.6 3.4 -1.9
v 1.5 3.4 -2
v 1.6 3.4 -2
v 2.4 3.4 -2
v 2.6 3.4 -2
v 1.4 3.5 -1.9
v 1.5 3.5 -1.9
v 2.6 3.5 -1.9
v 2.8 3.5 -1.9
v 3.1 3.5 -1.9
v 3.3 3.5 -1.9
v 1.4 3.5 -2
v 1.5 3.5 -2
v 2.6 3.5 -2
v 2.8 3.5 -2
v 3.1 3.5 -2
v 3.3 3.5 -2
v 2.8 3.6 -1.9
v 3.1 3.6 -1.9
v 3.3 3.6 -1.9
v 3.4 3.6 -1.9
v 2.8 3.6 -2
v 3.1 3.6 -2
v 3.3 3.6 -2
v 3.4 3.6 -2
v 1.3 3.7 -1.9
v 1.4 3.7 -1.9
v 1.3 3.7 -2
v 1.4 3.7 -2
v 3.4 3.8 -1.9
v 3.5 3.8 -1.9
v 3.4 3.8 -2
v 3.5 3.8 -2
v 1.7 2.4 -1.9
v 1.9 2.4 -1.9
v 2.1 2.4 -1.9
v 2.3 2.4 -1.9
v 1.7 2.4 -2
v 1.9 2.4 -2
v 2.1 2.4 -2
v 2.3 2.4 -2
v 1 2.5 -1.9
v 1.1 2.5 -1.9
v 1.6 2.5 -1.9
v 1.7 2.5 -1.9
v 2.3 2.5 -1.9
v 2.4 2.5 -1.9
v 2.9 2.5 -1.9
v 3 2.5 -1.9
v 1 2.5 -2
v 1.1 2.5 -2
v 1.6 2.5 -2
v 1.7 2.5 -2
v 2.3 2.5 -2
v 2.4 2.5 -2
v 2.9 2.5 -2
v 3 2.5 -2
v 1.1 2.6 -1.9
v 1.6 2.6 -1.9
v 2.4 2.6 -1.9
v 2.9 2.6 -1.9
v 1.1 2.6 -2
v 1.6 2.6 -2
v 2.4 2.6 -2
v 2.9 2.6 -2
v 3.4 4.2 -1.9
v 3.5 4.2 -1.9
v 3.4 4.2 -2
v 3.5 4.2 -2
v 1.3 4.3 -1.9
v 1.4 4.3 -1.9
v 1.3 4.3 -2
v 1.4 4.3 -2
v 2.8 4.4 -1.9
v 3.1 4.4 -1.9
v 3.3 4.4 -1.9
v 3.4 4.4 -1.9
v 2.8 4.4 -2
v 3.1 4.4 -2
v 3.3 4.4 -2
v 3.4 4.4 -2
v 1.4 4.5 -1.9
v 1.5 4.5 -1.9
v 2.6 4.5 -1.9
v 2.8 4.5 -1.9
v 3.1 4.5 -1.9
v 3.3 4.5 -1.9
v 1.4 4.5 -2
v 1.5 4.5 -2
v 2.6 4.5 -2
v 2.8 4.5 -2
v 3.1 4.5 -2
v 3.3 4.5 -2
v 1.5 4.6 -1.9
v 1.6 4.6 -1.9
v 2.4 4.6 -1.9
v 2.6 4.6 -1.9
v 1.5 4.6 -2
v 1.6 4.6 -2
v 2.4 4.6 -2
v 2.6 4.6 -2
v 1.6 4.7 -1.9
v 2.4 4.7 -1.9
v 1.6 4.7 -2
v 2.4 4.7 -2

# faces
f 3/4/1 2/4/1 1/4/1
f 4/4/1 2/4/1 3/4/1
f 7/4/1 6/4/1 5/4/1
f 8/4/1 6/4/1 7/4/1
f 11/4/1 10/4/1 9/4/1
f 12/4/1 10/4/1 11/4/1
f 15/4/1 14/4/1 13/4/1
f 16/4/1 14/4/1 15/4/1
f 19/2/1 18/2/1 17/2/1
f 20/2/1 18/2/1 19/2/1
f 23/2/1 22/2/1 21/2/1
f 24/2/1 22/2/1 23/2/1
f 27/2/1 26/2/1 25/2/1
f 28/2/1 26/2/1 27/2/1
f 31/2/1 30/2/1 29/2/1
f 32/2/1 30/2/1 31/2/1
f 35/2/1 34/2/1 33/2/1
f 36/2/1 34/2/1 35/2/1
f 39/4/1 38/4/1 37/4/1
f 40/4/1 38/4/1 39/4/1
f 43/2/1 42/2/1 41/2/1
f 44/2/1 42/2/1 43/2/1
f 47/2/1 46/2/1 45/2/1
f 48/2/1 46/2/1 47/2/1
f 51/4/1 50/4/1 49/4/1
f 52/4/1 50/4/1 51/4/1
f 55/4/1 54/4/1 53/4/1
f 56/4/1 54/4/1 55/4/1
f 59/4/1 58/4/1 57/4/1
f 60/4/1 58/4/1 59/4/1
f 63/4/1 62/4/1 61/4/1
f 64/4/1 62/4/1 63/4/1
f 67/2/1 66/2/1 65/2/1
f 68/2/1 66/2/1 67/2/1
f 71/2/1 70/2/1 69/2/1
f 72/2/1 70/2/1 71/2/1
f 73/4/2 74/4/2 75/4/2
f 75/4/2 74/4/2 76/4/2
f 77/4/2 78/4/2 79/4/2
f 79/4/2 78/4/2 80/4/2
f 81/4/2 82/4/2 83/4/2
f 83/4/2 82/4/2 84/4/2
f 85/4/2 86/4/2 87/4/2
f 87/4/2 86/4/2 88/4/2
f 89/4/2 90/4/2 91/4/2
f 91/4/2 90/4/2 92/4/2
f 93/2/2 94/2/2 95/2/2
f 95/2/2 94/2/2 96/2/2
f 97/2/2 98/2/2 99/2/2
f 99/2/2 98/2/2 100/2/2
f 101/2/2 102/2/2 103/2/2
f 103/2/2 102/2/2 104/2/2
f 105/2/2 106/2/2 107/2/2
f 107/2/2 106/2/2 108/2/2
f 109/4/2 110/4/2 111/4/2
f 111/4/2 110/4/2 112/4/2
f 113/2/2 114/2/2 115/2/2
f 115/2/2 114/2/2 116/2/2
f 117/2/2 118/2/2 119/2/2
f 119/2/2 118/2/2 120/2/2
f 121/4/2 122/4/2 123/4/2
f 123/4/2 122/4/2 124/4/2
f 125/4/2 126/4/2 127/4/2
f 127/4/2 126/4/2 128/4/2
f 129/4/2 130/4/2 131/4/2
f 131/4/2 130/4/2 132/4/2
f 133/2/2 134/2/2 135/2/2
f 135/2/2 134/2/2 136/2/2
f 137/2/2 138/2/2 139/2/2
f 139/2/2 138/2/2 140/2/2
f 141/2/2 142/2/2 143/2/2
f 143/2/2 142/2/2 144/2/2
f 145/2/2 146/2/2 147/2/2
f 147/2/2 146/2/2 148/2/2
f 149/2/2 150/2/2 151/2/2
f 151/2/2 150/2/2 152/2/2
f 156/4/3 154/4/3 153/4/3
f 157/4/3 154/4/3 156/4/3
f 160/4/3 156/4/3 155/4/3
f 160/4/3 158/4/3 157/4/3
f 160/4/3 157/4/3 156/4/3
f 161/4/3 158/4/3 160/4/3
f 162/4/3 158/4/3 161/4/3
f 163/4/3 160/4/3 159/4/3
f 163/4/3 161/4/3 160/4/3
f 164/2/3 162/2/3 161/2/3
f 164/4/3 161/4/3 163/4/3
f 165/4/3 158/4/3 162/4/3
f 165/2/3 162/2/3 164/2/3
f 169/2/3 167/2/3 166/2/3
f 170/2/3 167/2/3 169/2/3
f 172/4/3 163/4/3 159/4/3
f 173/2/3 164/2/3 163/2/3
f 173/4/3 163/4/3 172/4/3
f 174/4/3 165/4/3 164/4/3
f 174/2/3 164/2/3 173/2/3
f 176/2/3 171/2/3 170/2/3
f 176/2/3 169/2/3 168/2/3
f 176/2/3 170/2/3 169/2/3
f 177/2/3 171/2/3 176/2/3
f 180/4/3 172/4/3 159/4/3
f 181/4/3 165/4/3 174/4/3
f 181/4/3 158/4/3 165/4/3
f 181/4/3 174/4/3 173/4/3
f 182/4/3 158/4/3 181/4/3
f 184/2/3 178/2/3 177/2/3
f 184/2/3 176/2/3 175/2/3
f 184/2/3 177/2/3 176/2/3
f 185/2/3 178/2/3 184/2/3
f 187/4/3 180/4/3 179/4/3
f 187/4/3 172/4/3 180/4/3
f 188/2/3 173/2/3 172/2/3
f 188/4/3 172/4/3 187/4/3
f 189/4/3 181/4/3 173/4/3
f 189/2/3 173/2/3 188/2/3
f 190/4/3 181/4/3 189/4/3
f 191/4/3 181/4/3 190/4/3
f 193/2/3 186/2/3 185/2/3
f 193/2/3 185/2/3 184/2/3
f 193/2/3 184/2/3 183/2/3
f 194/4/3 187/4/3 179/4/3
f 194/2/3 188/2/3 187/2/3
f 195/4/3 190/4/3 189/4/3
f 195/2/3 188/2/3 194/2/3
f 195/4/3 189/4/3 188/4/3
f 196/4/3 190/4/3 195/4/3
f 197/4/3 193/4/3 192/4/3
f 198/4/3 194/4/3 179/4/3
f 198/4/3 197/4/3 196/4/3
f 198/4/3 196/4/3 195/4/3
f 198/4/3 195/4/3 194/4/3
f 199/4/3 197/4/3 198/4/3
f 200/4/3 197/4/3 199/4/3
f 201/4/3 193/4/3 197/4/3
f 201/4/3 197/4/3 200/4/3
f 202/2/3 186/2/3 193/2/3
f 203/2/3 186/2/3 202/2/3
f 204/2/3 186/2/3 203/2/3
f 205/4/3 193/4/3 201/4/3
f 206/2/3 202/2/3 193/2/3
f 206/4/3 193/4/3 205/4/3
f 207/1/3 204/1/3 203/1/3
f 207/3/3 203/3/3 202/3/3
f 208/2/3 186/2/3 204/2/3
f 208/1/3 204/1/3 207/1/3
f 209/4/3 198/4/3 179/4/3
f 209/2/3 199/2/3 198/2/3
f 210/4/3 200/4/3 199/4/3
f 210/2/3 199/2/3 209/2/3
f 211/4/3 200/4/3 210/4/3
f 212/4/3 200/4/3 211/4/3
f 214/4/3 209/4/3 179/4/3
f 214/4/3 210/4/3 209/4/3
f 215/4/3 210/4/3 214/4/3
f 216/4/3 213/4/3 212/4/3
f 216/4/3 212/4/3 211/4/3
f 218/2/3 202/2/3 206/2/3
f 219/2/3 202/2/3 218/2/3
f 220/3/3 207/3/3 202/3/3
f 220/2/3 202/2/3 219/2/3
f 220/3/3 208/3/3 207/3/3
f 221/2/3 186/2/3 208/2/3
f 221/3/3 208/3/3 220/3/3
f 222/2/3 186/2/3 221/2/3
f 223/2/3 186/2/3 222/2/3
f 224/4/3 210/4/3 215/4/3
f 224/2/3 211/2/3 210/2/3
f 225/4/3 217/4/3 216/4/3
f 225/2/3 211/2/3 224/2/3
f 225/4/3 216/4/3 211/4/3
f 226/4/3 217/4/3 225/4/3
f 227/2/3 222/2/3 221/2/3
f 227/2/3 220/2/3 219/2/3
f 227/2/3 221/2/3 220/2/3
f 228/2/3 222/2/3 227/2/3
f 229/2/3 222/2/3 228/2/3
f 230/2/3 222/2/3 229/2/3
f 231/2/3 222/2/3 230/2/3
f 232/2/3 222/2/3 231/2/3
f 233/2/3 222/2/3 232/2/3
f 234/2/3 226/2/3 225/2/3
f 234/4/3 225/4/3 224/4/3
f 235/4/3 217/4/3 226/4/3
f 235/2/3 226/2/3 234/2/3
f 236/4/3 217/4/3 235/4/3
f 237/1/3 231/1/3 230/1/3
f 237/3/3 230/3/3 229/3/3
f 238/2/3 232/2/3 231/2/3
f 238/1/3 231/1/3 237/1/3
f 239/4/3 234/4/3 224/4/3
f 239/4/3 224/4/3 215/4/3
f 239/4/3 235/4/3 234/4/3
f 240/4/3 235/4/3 239/4/3
f 241/2/3 236/2/3 235/2/3
f 241/4/3 235/4/3 240/4/3
f 242/4/3 217/4/3 236/4/3
f 242/2/3 236/2/3 241/2/3
f 243/2/3 229/2/3 228/2/3
f 244/2/3 229/2/3 243/2/3
f 245/3/3 238/3/3 237/3/3
f 245/2/3 229/2/3 244/2/3
f 245/3/3 237/3/3 229/3/3
f 246/2/3 232/2/3 238/2/3
f 246/3/3 238/3/3 245/3/3
f 247/2/3 232/2/3 246/2/3
f 248/4/3 241/4/3 240/4/3
f 248/4/3 242/4/3 241/4/3
f 249/4/3 242/4/3 248/4/3
f 250/4/3 217/4/3 242/4/3
f 250/4/3 242/4/3 249/4/3
f 251/4/3 217/4/3 250/4/3
f 252/4/3 250/4/3 249/4/3
f 253/4/3 250/4/3 252/4/3
f 254/2/3 245/2/3 244/2/3
f 254/2/3 246/2/3 245/2/3
f 255/2/3 246/2/3 254/2/3
f 257/2/3 254/2/3 244/2/3
f 258/3/3 255/3/3 254/3/3
f 258/2/3 254/2/3 257/2/3
f 259/2/3 246/2/3 255/2/3
f 259/3/3 255/3/3 258/3/3
f 260/2/3 246/2/3 259/2/3
f 262/2/3 257/2/3 256/2/3
f 263/3/3 258/3/3 257/3/3
f 263/2/3 257/2/3 262/2/3
f 263/3/3 259/3/3 258/3/3
f 263/3/3 260/3/3 259/3/3
f 264/3/3 260/3/3 263/3/3
f 265/3/3 260/3/3 264/3/3
f 266/2/3 261/2/3 260/2/3
f 266/3/3 260/3/3 265/3/3
f 267/2/3 261/2/3 266/2/3
f 268/2/3 264/2/3 263/2/3
f 269/3/3 265/3/3 264/3/3
f 269/2/3 264/2/3 268/2/3
f 270/2/3 266/2/3 265/2/3
f 270/3/3 265/3/3 269/3/3
f 271/2/3 266/2/3 270/2/3
f 272/2/3 270/2/3 269/2/3
f 273/2/3 270/2/3 272/2/3
f 274/4/4 275/4/4 277/4/4
f 277/4/4 275/4/4 278/4/4
f 276/4/4 277/4/4 281/4/4
f 278/4/4 279/4/4 281/4/4
f 277/4/4 278/4/4 281/4/4
f 281/4/4 279/4/4 282/4/4
f 282/4/4 279/4/4 283/4/4
f 280/4/4 281/4/4 284/4/4
f 281/4/4 282/4/4 284/4/4
f 282/2/4 283/2/4 285/2/4
f 284/4/4 282/4/4 285/4/4
f 283/4/4 279/4/4 286/4/4
f 285/2/4 283/2/4 286/2/4
f 287/2/4 288/2/4 290/2/4
f 290/2/4 288/2/4 291/2/4
f 280/4/4 284/4/4 293/4/4
f 284/2/4 285/2/4 294/2/4
f 293/4/4 284/4/4 294/4/4
f 285/4/4 286/4/4 295/4/4
f 294/2/4 285/2/4 295/2/4
f 291/2/4 292/2/4 297/2/4
f 289/2/4 290/2/4 297/2/4
f 290/2/4 291/2/4 297/2/4
f 297/2/4 292/2/4 298/2/4
f 280/4/4 293/4/4 301/4/4
f 295/4/4 286/4/4 302/4/4
f 286/4/4 279/4/4 302/4/4
f 294/4/4 295/4/4 302/4/4
f 302/4/4 279/4/4 303/4/4
f 298/2/4 299/2/4 305/2/4
f 296/2/4 297/2/4 305/2/4
f 297/2/4 298/2/4 305/2/4
f 305/2/4 299/2/4 306/2/4
f 300/4/4 301/4/4 308/4/4
f 301/4/4 293/4/4 308/4/4
f 293/2/4 294/2/4 309/2/4
f 308/4/4 293/4/4 309/4/4
f 294/4/4 302/4/4 310/4/4
f 309/2/4 294/2/4 310/2/4
f 310/4/4 302/4/4 311/4/4
f 311/4/4 302/4/4 312/4/4
f 306/2/4 307/2/4 314/2/4
f 305/2/4 306/2/4 314/2/4
f 304/2/4 305/2/4 314/2/4
f 300/4/4 308/4/4 315/4/4
f 308/2/4 309/2/4 315/2/4
f 310/4/4 311/4/4 316/4/4
f 315/2/4 309/2/4 316/2/4
f 309/4/4 310/4/4 316/4/4
f 316/4/4 311/4/4 317/4/4
f 313/4/4 314/4/4 318/4/4
f 300/4/4 315/4/4 319/4/4
f 317/4/4 318/4/4 319/4/4
f 316/4/4 317/4/4 319/4/4
f 315/4/4 316/4/4 319/4/4
f 319/4/4 318/4/4 320/4/4
f 320/4/4 318/4/4 321/4/4
f 318/4/4 314/4/4 322/4/4
f 321/4/4 318/4/4 322/4/4
f 314/2/4 307/2/4 323/2/4
f 323/2/4 307/2/4 324/2/4
f 324/2/4 307/2/4 325/2/4
f 322/4/4 314/4/4 326/4/4
f 314/2/4 323/2/4 327/2/4
f 326/4/4 314/4/4 327/4/4
f 324/1/4 325/1/4 328/1/4
f 323/3/4 324/3/4 328/3/4
f 325/2/4 307/2/4 329/2/4
f 328/1/4 325/1/4 329/1/4
f 300/4/4 319/4/4 330/4/4
f 319/2/4 320/2/4 330/2/4
f 320/4/4 321/4/4 331/4/4
f 330/2/4 320/2/4 331/2/4
f 331/4/4 321/4/4 332/4/4
f 332/4/4 321/4/4 333/4/4
f 300/4/4 330/4/4 335/4/4
f 330/4/4 331/4/4 335/4/4
f 335/4/4 331/4/4 336/4/4
f 333/4/4 334/4/4 337/4/4
f 332/4/4 333/4/4 337/4/4
f 327/2/4 323/2/4 339/2/4
f 339/2/4 323/2/4 340/2/4
f 323/3/4 328/3/4 341/3/4
f 340/2/4 323/2/4 341/2/4
f 328/3/4 329/3/4 341/3/4
f 329/2/4 307/2/4 342/2/4
f 341/3/4 329/3/4 342/3/4
f 342/2/4 307/2/4 343/2/4
f 343/2/4 307/2/4 344/2/4
f 336/4/4 331/4/4 345/4/4
f 331/2/4 332/2/4 345/2/4
f 337/4/4 338/4/4 346/4/4
f 345/2/4 332/2/4 346/2/4
f 332/4/4 337/4/4 346/4/4
f 346/4/4 338/4/4 347/4/4
f 342/2/4 343/2/4 348/2/4
f 340/2/4 341/2/4 348/2/4
f 341/2/4 342/2/4 348/2/4
f 348/2/4 343/2/4 349/2/4
f 349/2/4 343/2/4 350/2/4
f 350/2/4 343/2/4 351/2/4
f 351/2/4 343/2/4 352/2/4
f 352/2/4 343/2/4 353/2/4
f 353/2/4 343/2/4 354/2/4
f 346/2/4 347/2/4 355/2/4
f 345/4/4 346/4/4 355/4/4
f 347/4/4 338/4/4 356/4/4
f 355/2/4 347/2/4 356/2/4
f 356/4/4 338/4/4 357/4/4
f 351/1/4 352/1/4 358/1/4
f 350/3/4 351/3/4 358/3/4
f 352/2/4 353/2/4 359/2/4
f 358/1/4 352/1/4 359/1/4
f 345/4/4 355/4/4 360/4/4
f 336/4/4 345/4/4 360/4/4
f 355/4/4 356/4/4 360/4/4
f 360/4/4 356/4/4 361/4/4
f 356/2/4 357/2/4 362/2/4
f 361/4/4 356/4/4 362/4/4
f 357/4/4 338/4/4 363/4/4
f 362/2/4 357/2/4 363/2/4
f 349/2/4 350/2/4 364/2/4
f 364/2/4 350/2/4 365/2/4
f 358/3/4 359/3/4 366/3/4
f 365/2/4 350/2/4 366/2/4
f 350/3/4 358/3/4 366/3/4
f 359/2/4 353/2/4 367/2/4
f 366/3/4 359/3/4 367/3/4
f 367/2/4 353/2/4 368/2/4
f 361/4/4 362/4/4 369/4/4
f 362/4/4 363/4/4 369/4/4
f 369/4/4 363/4/4 370/4/4
f 363/4/4 338/4/4 371/4/4
f 370/4/4 363/4/4 371/4/4
f 371/4/4 338/4/4 372/4/4
f 370/4/4 371/4/4 373/4/4
f 373/4/4 371/4/4 374/4/4
f 365/2/4 366/2/4 375/2/4
f 366/2/4 367/2/4 375/2/4
f 375/2/4 367/2/4 376/2/4
f 365/2/4 375/2/4 378/2/4
f 375/3/4 376/3/4 379/3/4
f 378/2/4 375/2/4 379/2/4
f 376/2/4 367/2/4 380/2/4
f 379/3/4 376/3/4 380/3/4
f 380/2/4 367/2/4 381/2/4
f 377/2/4 378/2/4 383/2/4
f 378/3/4 379/3/4 384/3/4
f 383/2/4 378/2/4 384/2/4
f 379/3/4 380/3/4 384/3/4
f 380/3/4 381/3/4 384/3/4
f 384/3/4 381/3/4 385/3/4
f 385/3/4 381/3/4 386/3/4
f 381/2/4 382/2/4 387/2/4
f 386/3/4 381/3/4 387/3/4
f 387/2/4 382/2/4 388/2/4
f 384/2/4 385/2/4 389/2/4
f 385/3/4 386/3/4 390/3/4
f 389/2/4 385/2/4 390/2/4
f 386/2/4 387/2/4 391/2/4
f 390/3/4 386/3/4 391/3/4
f 391/2/4 387/2/4 392/2/4
f 390/2/4 391/2/4 393/2/4
f 393/2/4 391/2/4 394/2/4
f 397/4/5 396/4/5 395/4/5
f 398/4/5 396/4/5 397/4/5
f 403/4/5 400/4/5 399/4/5
f 404/4/5 400/4/5 403/4/5
f 405/4/5 402/4/5 401/4/5
f 406/4/5 402/4/5 405/4/5
f 411/4/5 408/4/5 407/4/5
f 412/4/5 408/4/5 411/4/5
f 413/4/5 410/4/5 409/4/5
f 414/4/5 410/4/5 413/4/5
f 419/4/5 416/4/5 415/4/5
f 420/4/5 416/4/5 419/4/5
f 421/4/5 418/4/5 417/4/5
f 422/4/5 418/4/5 421/4/5
f 427/4/5 424/4/5 423/4/5
f 428/4/5 424/4/5 427/4/5
f 429/4/5 426/4/5 425/4/5
f 430/4/5 426/4/5 429/4/5
f 435/2/5 432/2/5 431/2/5
f 436/2/5 432/2/5 435/2/5
f 437/2/5 434/2/5 433/2/5
f 438/2/5 434/2/5 437/2/5
f 443/2/5 440/2/5 439/2/5
f 444/2/5 440/2/5 443/2/5
f 445/2/5 442/2/5 441/2/5
f 446/2/5 442/2/5 445/2/5
f 453/2/5 448/2/5 447/2/5
f 454/2/5 448/2/5 453/2/5
f 455/2/5 450/2/5 449/2/5
f 456/2/5 450/2/5 455/2/5
f 457/2/5 452/2/5 451/2/5
f 458/2/5 452/2/5 457/2/5
f 463/2/5 460/2/5 459/2/5
f 464/2/5 460/2/5 463/2/5
f 465/2/5 462/2/5 461/2/5
f 466/2/5 462/2/5 465/2/5
f 469/2/5 468/2/5 467/2/5
f 470/2/5 468/2/5 469/2/5
f 473/2/5 472/2/5 471/2/5
f 474/2/5 472/2/5 473/2/5
f 475/4/6 476/4/6 479/4/6
f 479/4/6 476/4/6 480/4/6
f 477/4/6 478/4/6 481/4/6
f 481/4/6 478/4/6 482/4/6
f 483/4/6 484/4/6 491/4/6
f 491/4/6 484/4/6 492/4/6
f 485/4/6 486/4/6 493/4/6
f 493/4/6 486/4/6 494/4/6
f 487/4/6 488/4/6 495/4/6
f 495/4/6 488/4/6 496/4/6
f 489/4/6 490/4/6 497/4/6
f 497/4/6 490/4/6 498/4/6
f 499/4/6 500/4/6 503/4/6
f 503/4/6 500/4/6 504/4/6
f 501/4/6 502/4/6 505/4/6
f 505/4/6 502/4/6 506/4/6
f 507/2/6 508/2/6 509/2/6
f 509/2/6 508/2/6 510/2/6
f 511/2/6 512/2/6 513/2/6
f 513/2/6 512/2/6 514/2/6
f 515/2/6 516/2/6 519/2/6
f 519/2/6 516/2/6 520/2/6
f 517/2/6 518/2/6 521/2/6
f 521/2/6 518/2/6 522/2/6
f 523/2/6 524/2/6 529/2/6
f 529/2/6 524/2/6 530/2/6
f 525/2/6 526/2/6 531/2/6
f 531/2/6 526/2/6 532/2/6
f 527/2/6 528/2/6 533/2/6
f 533/2/6 528/2/6 534/2/6
f 535/2/6 536/2/6 539/2/6
f 539/2/6 536/2/6 540/2/6
f 537/2/6 538/2/6 541/2/6
f 541/2/6 538/2/6 542/2/6
f 543/2/6 544/2/6 545/2/6
f 545/2/6 544/2/6 546/2/6
