# MagicaVoxel @ Ephtracy

# group
o 

# material
mtllib Plant2Sunflower.mtl
usemtl palette

# normals
vn -1 0 0
vn 1 0 0
vn 0 0 1
vn 0 0 -1
vn 0 -1 0
vn 0 1 0

# texcoords
vt 0.185547 0.5
vt 0.373047 0.5
vt 0.607422 0.5
vt 0.650391 0.5
vt 0.994141 0.5

# verts
v 1.4 3.2 -1.8
v 1.4 3.2 -1.9
v 1.4 3.4 -1.8
v 1.4 3.4 -1.9
v 1.4 3.5 -1.8
v 1.4 3.5 -1.9
v 1.4 3.7 -1.8
v 1.4 3.7 -1.9
v 1.5 3 -1.8
v 1.5 3 -1.9
v 1.5 3.1 -1.8
v 1.5 3.1 -1.9
v 1.5 3.2 -1.8
v 1.5 3.2 -1.9
v 1.5 3.4 -1.8
v 1.5 3.4 -1.9
v 1.5 3.5 -1.8
v 1.5 3.5 -1.9
v 1.5 3.7 -1.8
v 1.5 3.7 -1.9
v 1.5 3.8 -1.8
v 1.5 3.8 -1.9
v 1.5 3.9 -1.8
v 1.5 3.9 -1.9
v 1.6 2.6 -1.8
v 1.6 2.6 -1.9
v 1.6 2.8 -1.8
v 1.6 2.8 -1.9
v 1.6 2.9 -1.8
v 1.6 2.9 -1.9
v 1.6 3 -1.8
v 1.6 3 -1.9
v 1.6 3.9 -1.8
v 1.6 3.9 -1.9
v 1.6 4 -1.8
v 1.6 4 -1.9
v 1.7 2.5 -1.8
v 1.7 2.5 -1.9
v 1.7 2.6 -1.8
v 1.7 2.6 -1.9
v 1.8 2.4 -1.8
v 1.8 2.4 -1.9
v 1.8 2.5 -1.8
v 1.8 2.5 -1.9
v 1.8 2.8 -1.8
v 1.8 2.8 -1.9
v 1.8 2.9 -1.8
v 1.8 2.9 -1.9
v 1.8 4 -1.8
v 1.8 4 -1.9
v 1.8 4.1 -1.8
v 1.8 4.1 -1.9
v 1.9 2.3 -1.8
v 1.9 2.3 -1.9
v 1.9 2.4 -1.8
v 1.9 2.4 -1.9
v 2 2 -1.8
v 2 2 -1.9
v 2 2.3 -1.8
v 2 2.3 -1.9
v 2 2.6 -1.8
v 2 2.6 -1.9
v 2 2.8 -1.8
v 2 2.8 -1.9
v 2.1 4 -1.8
v 2.1 4 -1.9
v 2.1 4.1 -1.8
v 2.1 4.1 -1.9
v 2.2 2.6 -1.8
v 2.2 2.6 -1.9
v 2.2 2.7 -1.8
v 2.2 2.7 -1.9
v 2.3 2.7 -1.8
v 2.3 2.7 -1.9
v 2.3 2.8 -1.8
v 2.3 2.8 -1.9
v 1.8 2.7 -1.8
v 1.8 2.7 -1.9
v 1.8 2.8 -1.8
v 1.8 2.8 -1.9
v 1.9 2.6 -1.8
v 1.9 2.6 -1.9
v 1.9 2.7 -1.8
v 1.9 2.7 -1.9
v 2 4 -1.8
v 2 4 -1.9
v 2 4.1 -1.8
v 2 4.1 -1.9
v 2.1 2 -1.8
v 2.1 2 -1.9
v 2.1 2.3 -1.8
v 2.1 2.3 -1.9
v 2.1 2.6 -1.8
v 2.1 2.6 -1.9
v 2.1 2.8 -1.8
v 2.1 2.8 -1.9
v 2.2 2.3 -1.8
v 2.2 2.3 -1.9
v 2.2 2.4 -1.8
v 2.2 2.4 -1.9
v 2.3 2.4 -1.8
v 2.3 2.4 -1.9
v 2.3 2.5 -1.8
v 2.3 2.5 -1.9
v 2.3 2.8 -1.8
v 2.3 2.8 -1.9
v 2.3 2.9 -1.8
v 2.3 2.9 -1.9
v 2.3 4 -1.8
v 2.3 4 -1.9
v 2.3 4.1 -1.8
v 2.3 4.1 -1.9
v 2.4 2.5 -1.8
v 2.4 2.5 -1.9
v 2.4 2.6 -1.8
v 2.4 2.6 -1.9
v 2.5 2.6 -1.8
v 2.5 2.6 -1.9
v 2.5 2.8 -1.8
v 2.5 2.8 -1.9
v 2.5 2.9 -1.8
v 2.5 2.9 -1.9
v 2.5 3 -1.8
v 2.5 3 -1.9
v 2.5 3.9 -1.8
v 2.5 3.9 -1.9
v 2.5 4 -1.8
v 2.5 4 -1.9
v 2.6 3 -1.8
v 2.6 3 -1.9
v 2.6 3.1 -1.8
v 2.6 3.1 -1.9
v 2.6 3.2 -1.8
v 2.6 3.2 -1.9
v 2.6 3.4 -1.8
v 2.6 3.4 -1.9
v 2.6 3.5 -1.8
v 2.6 3.5 -1.9
v 2.6 3.7 -1.8
v 2.6 3.7 -1.9
v 2.6 3.8 -1.8
v 2.6 3.8 -1.9
v 2.6 3.9 -1.8
v 2.6 3.9 -1.9
v 2.7 3.2 -1.8
v 2.7 3.2 -1.9
v 2.7 3.4 -1.8
v 2.7 3.4 -1.9
v 2.7 3.5 -1.8
v 2.7 3.5 -1.9
v 2.7 3.7 -1.8
v 2.7 3.7 -1.9
v 1.4 3.2 -1.8
v 1.4 3.4 -1.8
v 1.4 3.5 -1.8
v 1.4 3.7 -1.8
v 1.5 3 -1.8
v 1.5 3.1 -1.8
v 1.5 3.2 -1.8
v 1.5 3.4 -1.8
v 1.5 3.5 -1.8
v 1.5 3.7 -1.8
v 1.5 3.8 -1.8
v 1.5 3.9 -1.8
v 1.6 2.6 -1.8
v 1.6 2.8 -1.8
v 1.6 2.9 -1.8
v 1.6 3 -1.8
v 1.6 3.2 -1.8
v 1.6 3.4 -1.8
v 1.6 3.5 -1.8
v 1.6 3.7 -1.8
v 1.6 3.9 -1.8
v 1.6 4 -1.8
v 1.7 2.5 -1.8
v 1.7 2.6 -1.8
v 1.7 2.7 -1.8
v 1.7 2.9 -1.8
v 1.7 3.1 -1.8
v 1.7 3.2 -1.8
v 1.7 3.3 -1.8
v 1.7 3.8 -1.8
v 1.7 4 -1.8
v 1.8 2.4 -1.8
v 1.8 2.5 -1.8
v 1.8 2.6 -1.8
v 1.8 2.7 -1.8
v 1.8 2.8 -1.8
v 1.8 2.9 -1.8
v 1.8 3 -1.8
v 1.8 3.1 -1.8
v 1.8 3.2 -1.8
v 1.8 3.3 -1.8
v 1.8 3.5 -1.8
v 1.8 3.7 -1.8
v 1.8 3.9 -1.8
v 1.8 4 -1.8
v 1.8 4.1 -1.8
v 1.9 2.3 -1.8
v 1.9 2.4 -1.8
v 1.9 2.5 -1.8
v 1.9 2.6 -1.8
v 1.9 2.7 -1.8
v 1.9 3.5 -1.8
v 1.9 3.7 -1.8
v 2 2 -1.8
v 2 2.3 -1.8
v 2 2.4 -1.8
v 2 2.5 -1.8
v 2 2.6 -1.8
v 2 2.8 -1.8
v 2 2.9 -1.8
v 2 3 -1.8
v 2 3.9 -1.8
v 2 4 -1.8
v 2 4.1 -1.8
v 2.1 2 -1.8
v 2.1 2.3 -1.8
v 2.1 2.4 -1.8
v 2.1 2.5 -1.8
v 2.1 2.6 -1.8
v 2.1 2.8 -1.8
v 2.1 2.9 -1.8
v 2.1 3 -1.8
v 2.1 3.9 -1.8
v 2.1 4 -1.8
v 2.1 4.1 -1.8
v 2.2 2.3 -1.8
v 2.2 2.4 -1.8
v 2.2 2.5 -1.8
v 2.2 2.6 -1.8
v 2.2 2.7 -1.8
v 2.2 3.5 -1.8
v 2.2 3.7 -1.8
v 2.3 2.4 -1.8
v 2.3 2.5 -1.8
v 2.3 2.6 -1.8
v 2.3 2.7 -1.8
v 2.3 2.8 -1.8
v 2.3 2.9 -1.8
v 2.3 3 -1.8
v 2.3 3.1 -1.8
v 2.3 3.2 -1.8
v 2.3 3.3 -1.8
v 2.3 3.5 -1.8
v 2.3 3.7 -1.8
v 2.3 3.9 -1.8
v 2.3 4 -1.8
v 2.3 4.1 -1.8
v 2.4 2.5 -1.8
v 2.4 2.6 -1.8
v 2.4 2.7 -1.8
v 2.4 2.9 -1.8
v 2.4 3.1 -1.8
v 2.4 3.2 -1.8
v 2.4 3.3 -1.8
v 2.4 3.8 -1.8
v 2.4 4 -1.8
v 2.5 2.6 -1.8
v 2.5 2.8 -1.8
v 2.5 2.9 -1.8
v 2.5 3 -1.8
v 2.5 3.2 -1.8
v 2.5 3.4 -1.8
v 2.5 3.5 -1.8
v 2.5 3.7 -1.8
v 2.5 3.9 -1.8
v 2.5 4 -1.8
v 2.6 3 -1.8
v 2.6 3.1 -1.8
v 2.6 3.2 -1.8
v 2.6 3.4 -1.8
v 2.6 3.5 -1.8
v 2.6 3.7 -1.8
v 2.6 3.8 -1.8
v 2.6 3.9 -1.8
v 2.7 3.2 -1.8
v 2.7 3.4 -1.8
v 2.7 3.5 -1.8
v 2.7 3.7 -1.8
v 1.4 3.2 -1.9
v 1.4 3.4 -1.9
v 1.4 3.5 -1.9
v 1.4 3.7 -1.9
v 1.5 3 -1.9
v 1.5 3.1 -1.9
v 1.5 3.2 -1.9
v 1.5 3.4 -1.9
v 1.5 3.5 -1.9
v 1.5 3.7 -1.9
v 1.5 3.8 -1.9
v 1.5 3.9 -1.9
v 1.6 2.6 -1.9
v 1.6 2.8 -1.9
v 1.6 2.9 -1.9
v 1.6 3 -1.9
v 1.6 3.2 -1.9
v 1.6 3.4 -1.9
v 1.6 3.5 -1.9
v 1.6 3.7 -1.9
v 1.6 3.9 -1.9
v 1.6 4 -1.9
v 1.7 2.5 -1.9
v 1.7 2.6 -1.9
v 1.7 2.7 -1.9
v 1.7 2.9 -1.9
v 1.7 3.1 -1.9
v 1.7 3.2 -1.9
v 1.7 3.3 -1.9
v 1.7 3.8 -1.9
v 1.7 4 -1.9
v 1.8 2.4 -1.9
v 1.8 2.5 -1.9
v 1.8 2.6 -1.9
v 1.8 2.7 -1.9
v 1.8 2.8 -1.9
v 1.8 2.9 -1.9
v 1.8 3 -1.9
v 1.8 3.1 -1.9
v 1.8 3.2 -1.9
v 1.8 3.3 -1.9
v 1.8 3.5 -1.9
v 1.8 3.7 -1.9
v 1.8 3.9 -1.9
v 1.8 4 -1.9
v 1.8 4.1 -1.9
v 1.9 2.3 -1.9
v 1.9 2.4 -1.9
v 1.9 2.5 -1.9
v 1.9 2.6 -1.9
v 1.9 2.7 -1.9
v 1.9 3.5 -1.9
v 1.9 3.7 -1.9
v 2 2 -1.9
v 2 2.3 -1.9
v 2 2.4 -1.9
v 2 2.5 -1.9
v 2 2.6 -1.9
v 2 2.8 -1.9
v 2 2.9 -1.9
v 2 3 -1.9
v 2 3.9 -1.9
v 2 4 -1.9
v 2 4.1 -1.9
v 2.1 2 -1.9
v 2.1 2.3 -1.9
v 2.1 2.4 -1.9
v 2.1 2.5 -1.9
v 2.1 2.6 -1.9
v 2.1 2.8 -1.9
v 2.1 2.9 -1.9
v 2.1 3 -1.9
v 2.1 3.9 -1.9
v 2.1 4 -1.9
v 2.1 4.1 -1.9
v 2.2 2.3 -1.9
v 2.2 2.4 -1.9
v 2.2 2.5 -1.9
v 2.2 2.6 -1.9
v 2.2 2.7 -1.9
v 2.2 3.5 -1.9
v 2.2 3.7 -1.9
v 2.3 2.4 -1.9
v 2.3 2.5 -1.9
v 2.3 2.6 -1.9
v 2.3 2.7 -1.9
v 2.3 2.8 -1.9
v 2.3 2.9 -1.9
v 2.3 3 -1.9
v 2.3 3.1 -1.9
v 2.3 3.2 -1.9
v 2.3 3.3 -1.9
v 2.3 3.5 -1.9
v 2.3 3.7 -1.9
v 2.3 3.9 -1.9
v 2.3 4 -1.9
v 2.3 4.1 -1.9
v 2.4 2.5 -1.9
v 2.4 2.6 -1.9
v 2.4 2.7 -1.9
v 2.4 2.9 -1.9
v 2.4 3.1 -1.9
v 2.4 3.2 -1.9
v 2.4 3.3 -1.9
v 2.4 3.8 -1.9
v 2.4 4 -1.9
v 2.5 2.6 -1.9
v 2.5 2.8 -1.9
v 2.5 2.9 -1.9
v 2.5 3 -1.9
v 2.5 3.2 -1.9
v 2.5 3.4 -1.9
v 2.5 3.5 -1.9
v 2.5 3.7 -1.9
v 2.5 3.9 -1.9
v 2.5 4 -1.9
v 2.6 3 -1.9
v 2.6 3.1 -1.9
v 2.6 3.2 -1.9
v 2.6 3.4 -1.9
v 2.6 3.5 -1.9
v 2.6 3.7 -1.9
v 2.6 3.8 -1.9
v 2.6 3.9 -1.9
v 2.7 3.2 -1.9
v 2.7 3.4 -1.9
v 2.7 3.5 -1.9
v 2.7 3.7 -1.9
v 2 2 -1.8
v 2.1 2 -1.8
v 2 2 -1.9
v 2.1 2 -1.9
v 1.9 2.3 -1.8
v 2 2.3 -1.8
v 2.1 2.3 -1.8
v 2.2 2.3 -1.8
v 1.9 2.3 -1.9
v 2 2.3 -1.9
v 2.1 2.3 -1.9
v 2.2 2.3 -1.9
v 1.8 2.4 -1.8
v 1.9 2.4 -1.8
v 2.2 2.4 -1.8
v 2.3 2.4 -1.8
v 1.8 2.4 -1.9
v 1.9 2.4 -1.9
v 2.2 2.4 -1.9
v 2.3 2.4 -1.9
v 1.7 2.5 -1.8
v 1.8 2.5 -1.8
v 2.3 2.5 -1.8
v 2.4 2.5 -1.8
v 1.7 2.5 -1.9
v 1.8 2.5 -1.9
v 2.3 2.5 -1.9
v 2.4 2.5 -1.9
v 1.6 2.6 -1.8
v 1.7 2.6 -1.8
v 2.4 2.6 -1.8
v 2.5 2.6 -1.8
v 1.6 2.6 -1.9
v 1.7 2.6 -1.9
v 2.4 2.6 -1.9
v 2.5 2.6 -1.9
v 1.8 2.8 -1.8
v 2 2.8 -1.8
v 2.1 2.8 -1.8
v 2.3 2.8 -1.8
v 1.8 2.8 -1.9
v 2 2.8 -1.9
v 2.1 2.8 -1.9
v 2.3 2.8 -1.9
v 1.6 2.9 -1.8
v 1.7 2.9 -1.8
v 1.8 2.9 -1.8
v 2.3 2.9 -1.8
v 2.4 2.9 -1.8
v 2.5 2.9 -1.8
v 1.6 2.9 -1.9
v 1.7 2.9 -1.9
v 1.8 2.9 -1.9
v 2.3 2.9 -1.9
v 2.4 2.9 -1.9
v 2.5 2.9 -1.9
v 1.5 3 -1.8
v 1.6 3 -1.8
v 2.5 3 -1.8
v 2.6 3 -1.8
v 1.5 3 -1.9
v 1.6 3 -1.9
v 2.5 3 -1.9
v 2.6 3 -1.9
v 1.4 3.2 -1.8
v 1.5 3.2 -1.8
v 2.6 3.2 -1.8
v 2.7 3.2 -1.8
v 1.4 3.2 -1.9
v 1.5 3.2 -1.9
v 2.6 3.2 -1.9
v 2.7 3.2 -1.9
v 1.4 3.5 -1.8
v 1.5 3.5 -1.8
v 2.6 3.5 -1.8
v 2.7 3.5 -1.8
v 1.4 3.5 -1.9
v 1.5 3.5 -1.9
v 2.6 3.5 -1.9
v 2.7 3.5 -1.9
v 1.9 2.6 -1.8
v 2 2.6 -1.8
v 2.1 2.6 -1.8
v 2.2 2.6 -1.8
v 1.9 2.6 -1.9
v 2 2.6 -1.9
v 2.1 2.6 -1.9
v 2.2 2.6 -1.9
v 1.8 2.7 -1.8
v 1.9 2.7 -1.8
v 2.2 2.7 -1.8
v 2.3 2.7 -1.8
v 1.8 2.7 -1.9
v 1.9 2.7 -1.9
v 2.2 2.7 -1.9
v 2.3 2.7 -1.9
v 1.6 2.8 -1.8
v 1.8 2.8 -1.8
v 2.3 2.8 -1.8
v 2.5 2.8 -1.8
v 1.6 2.8 -1.9
v 1.8 2.8 -1.9
v 2.3 2.8 -1.9
v 2.5 2.8 -1.9
v 1.4 3.4 -1.8
v 1.5 3.4 -1.8
v 2.6 3.4 -1.8
v 2.7 3.4 -1.8
v 1.4 3.4 -1.9
v 1.5 3.4 -1.9
v 2.6 3.4 -1.9
v 2.7 3.4 -1.9
v 1.4 3.7 -1.8
v 1.5 3.7 -1.8
v 2.6 3.7 -1.8
v 2.7 3.7 -1.8
v 1.4 3.7 -1.9
v 1.5 3.7 -1.9
v 2.6 3.7 -1.9
v 2.7 3.7 -1.9
v 1.5 3.9 -1.8
v 1.6 3.9 -1.8
v 2.5 3.9 -1.8
v 2.6 3.9 -1.8
v 1.5 3.9 -1.9
v 1.6 3.9 -1.9
v 2.5 3.9 -1.9
v 2.6 3.9 -1.9
v 1.6 4 -1.8
v 1.7 4 -1.8
v 1.8 4 -1.8
v 2 4 -1.8
v 2.1 4 -1.8
v 2.3 4 -1.8
v 2.4 4 -1.8
v 2.5 4 -1.8
v 1.6 4 -1.9
v 1.7 4 -1.9
v 1.8 4 -1.9
v 2 4 -1.9
v 2.1 4 -1.9
v 2.3 4 -1.9
v 2.4 4 -1.9
v 2.5 4 -1.9
v 1.8 4.1 -1.8
v 2 4.1 -1.8
v 2.1 4.1 -1.8
v 2.3 4.1 -1.8
v 1.8 4.1 -1.9
v 2 4.1 -1.9
v 2.1 4.1 -1.9
v 2.3 4.1 -1.9

# faces
f 3/1/1 2/1/1 1/1/1
f 4/1/1 2/1/1 3/1/1
f 7/1/1 6/1/1 5/1/1
f 8/1/1 6/1/1 7/1/1
f 11/1/1 10/1/1 9/1/1
f 12/1/1 10/1/1 11/1/1
f 13/2/1 12/2/1 11/2/1
f 14/2/1 12/2/1 13/2/1
f 17/2/1 16/2/1 15/2/1
f 18/2/1 16/2/1 17/2/1
f 21/2/1 20/2/1 19/2/1
f 22/2/1 20/2/1 21/2/1
f 23/1/1 22/1/1 21/1/1
f 24/1/1 22/1/1 23/1/1
f 27/3/1 26/3/1 25/3/1
f 28/3/1 26/3/1 27/3/1
f 31/1/1 30/1/1 29/1/1
f 32/1/1 30/1/1 31/1/1
f 35/1/1 34/1/1 33/1/1
f 36/1/1 34/1/1 35/1/1
f 39/3/1 38/3/1 37/3/1
f 40/3/1 38/3/1 39/3/1
f 43/3/1 42/3/1 41/3/1
f 44/3/1 42/3/1 43/3/1
f 47/1/1 46/1/1 45/1/1
f 48/1/1 46/1/1 47/1/1
f 51/1/1 50/1/1 49/1/1
f 52/1/1 50/1/1 51/1/1
f 55/3/1 54/3/1 53/3/1
f 56/3/1 54/3/1 55/3/1
f 59/3/1 58/3/1 57/3/1
f 60/3/1 58/3/1 59/3/1
f 63/3/1 62/3/1 61/3/1
f 64/3/1 62/3/1 63/3/1
f 67/1/1 66/1/1 65/1/1
f 68/1/1 66/1/1 67/1/1
f 71/3/1 70/3/1 69/3/1
f 72/3/1 70/3/1 71/3/1
f 75/3/1 74/3/1 73/3/1
f 76/3/1 74/3/1 75/3/1
f 77/3/2 78/3/2 79/3/2
f 79/3/2 78/3/2 80/3/2
f 81/3/2 82/3/2 83/3/2
f 83/3/2 82/3/2 84/3/2
f 85/1/2 86/1/2 87/1/2
f 87/1/2 86/1/2 88/1/2
f 89/3/2 90/3/2 91/3/2
f 91/3/2 90/3/2 92/3/2
f 93/3/2 94/3/2 95/3/2
f 95/3/2 94/3/2 96/3/2
f 97/3/2 98/3/2 99/3/2
f 99/3/2 98/3/2 100/3/2
f 101/3/2 102/3/2 103/3/2
f 103/3/2 102/3/2 104/3/2
f 105/1/2 106/1/2 107/1/2
f 107/1/2 106/1/2 108/1/2
f 109/1/2 110/1/2 111/1/2
f 111/1/2 110/1/2 112/1/2
f 113/3/2 114/3/2 115/3/2
f 115/3/2 114/3/2 116/3/2
f 117/3/2 118/3/2 119/3/2
f 119/3/2 118/3/2 120/3/2
f 121/1/2 122/1/2 123/1/2
f 123/1/2 122/1/2 124/1/2
f 125/1/2 126/1/2 127/1/2
f 127/1/2 126/1/2 128/1/2
f 129/1/2 130/1/2 131/1/2
f 131/1/2 130/1/2 132/1/2
f 131/2/2 132/2/2 133/2/2
f 133/2/2 132/2/2 134/2/2
f 135/2/2 136/2/2 137/2/2
f 137/2/2 136/2/2 138/2/2
f 139/2/2 140/2/2 141/2/2
f 141/2/2 140/2/2 142/2/2
f 141/1/2 142/1/2 143/1/2
f 143/1/2 142/1/2 144/1/2
f 145/1/2 146/1/2 147/1/2
f 147/1/2 146/1/2 148/1/2
f 149/1/2 150/1/2 151/1/2
f 151/1/2 150/1/2 152/1/2
f 159/1/3 154/1/3 153/1/3
f 160/1/3 154/1/3 159/1/3
f 161/1/3 156/1/3 155/1/3
f 162/1/3 156/1/3 161/1/3
f 168/1/3 158/1/3 157/1/3
f 169/1/3 160/1/3 159/1/3
f 169/2/3 159/2/3 158/2/3
f 170/2/3 161/2/3 160/2/3
f 170/1/3 160/1/3 169/1/3
f 171/1/3 162/1/3 161/1/3
f 171/2/3 161/2/3 170/2/3
f 172/2/3 163/2/3 162/2/3
f 172/1/3 162/1/3 171/1/3
f 173/1/3 164/1/3 163/1/3
f 176/3/3 166/3/3 165/3/3
f 177/3/3 166/3/3 176/3/3
f 178/1/3 168/1/3 167/1/3
f 179/1/3 158/1/3 168/1/3
f 179/1/3 168/1/3 178/1/3
f 179/2/3 169/2/3 158/2/3
f 179/2/3 170/2/3 169/2/3
f 179/2/3 171/2/3 170/2/3
f 179/2/3 172/2/3 171/2/3
f 180/2/3 172/2/3 179/2/3
f 181/2/3 172/2/3 180/2/3
f 182/1/3 174/1/3 173/1/3
f 182/2/3 172/2/3 181/2/3
f 182/2/3 163/2/3 172/2/3
f 182/1/3 173/1/3 163/1/3
f 183/1/3 174/1/3 182/1/3
f 185/3/3 176/3/3 175/3/3
f 186/4/3 177/4/3 176/4/3
f 186/3/3 176/3/3 185/3/3
f 187/3/3 166/3/3 177/3/3
f 187/4/3 177/4/3 186/4/3
f 188/3/3 166/3/3 187/3/3
f 189/2/3 180/2/3 179/2/3
f 189/2/3 179/2/3 178/2/3
f 190/2/3 180/2/3 189/2/3
f 191/2/3 180/2/3 190/2/3
f 192/5/3 181/5/3 180/5/3
f 192/2/3 180/2/3 191/2/3
f 193/2/3 182/2/3 181/2/3
f 193/5/3 181/5/3 192/5/3
f 193/2/3 183/2/3 182/2/3
f 194/2/3 183/2/3 193/2/3
f 195/2/3 183/2/3 194/2/3
f 196/2/3 183/2/3 195/2/3
f 197/2/3 183/2/3 196/2/3
f 200/3/3 185/3/3 184/3/3
f 201/4/3 186/4/3 185/4/3
f 201/3/3 185/3/3 200/3/3
f 202/3/3 187/3/3 186/3/3
f 202/4/3 186/4/3 201/4/3
f 203/3/3 187/3/3 202/3/3
f 204/2/3 193/2/3 192/2/3
f 204/2/3 194/2/3 193/2/3
f 204/5/3 195/5/3 194/5/3
f 205/2/3 196/2/3 195/2/3
f 205/5/3 195/5/3 204/5/3
f 207/3/3 200/3/3 199/3/3
f 208/4/3 201/4/3 200/4/3
f 208/3/3 200/3/3 207/3/3
f 209/3/3 202/3/3 201/3/3
f 209/4/3 201/4/3 208/4/3
f 210/3/3 202/3/3 209/3/3
f 211/1/3 190/1/3 189/1/3
f 211/1/3 189/1/3 188/1/3
f 212/1/3 190/1/3 211/1/3
f 213/2/3 191/2/3 190/2/3
f 213/1/3 190/1/3 212/1/3
f 214/2/3 205/2/3 204/2/3
f 214/1/3 197/1/3 196/1/3
f 214/1/3 198/1/3 197/1/3
f 214/2/3 196/2/3 205/2/3
f 215/1/3 198/1/3 214/1/3
f 216/1/3 198/1/3 215/1/3
f 217/3/3 212/3/3 211/3/3
f 217/3/3 211/3/3 210/3/3
f 217/3/3 207/3/3 206/3/3
f 217/3/3 210/3/3 209/3/3
f 217/3/3 209/3/3 208/3/3
f 217/3/3 208/3/3 207/3/3
f 218/3/3 212/3/3 217/3/3
f 219/3/3 212/3/3 218/3/3
f 220/3/3 212/3/3 219/3/3
f 221/3/3 212/3/3 220/3/3
f 222/3/3 212/3/3 221/3/3
f 223/2/3 213/2/3 212/2/3
f 223/3/3 212/3/3 222/3/3
f 224/2/3 191/2/3 213/2/3
f 224/2/3 213/2/3 223/2/3
f 225/2/3 215/2/3 214/2/3
f 225/2/3 214/2/3 204/2/3
f 226/2/3 215/2/3 225/2/3
f 228/3/3 219/3/3 218/3/3
f 229/4/3 220/4/3 219/4/3
f 229/3/3 219/3/3 228/3/3
f 230/3/3 221/3/3 220/3/3
f 230/4/3 220/4/3 229/4/3
f 231/3/3 221/3/3 230/3/3
f 233/2/3 204/2/3 192/2/3
f 233/2/3 225/2/3 204/2/3
f 234/2/3 225/2/3 233/2/3
f 235/3/3 230/3/3 229/3/3
f 236/4/3 231/4/3 230/4/3
f 236/3/3 230/3/3 235/3/3
f 237/3/3 232/3/3 231/3/3
f 237/4/3 231/4/3 236/4/3
f 238/3/3 232/3/3 237/3/3
f 239/1/3 223/1/3 222/1/3
f 239/1/3 224/1/3 223/1/3
f 240/1/3 224/1/3 239/1/3
f 241/2/3 191/2/3 224/2/3
f 241/1/3 224/1/3 240/1/3
f 242/5/3 192/5/3 191/5/3
f 242/2/3 191/2/3 241/2/3
f 243/2/3 233/2/3 192/2/3
f 243/5/3 192/5/3 242/5/3
f 244/2/3 233/2/3 243/2/3
f 245/5/3 234/5/3 233/5/3
f 245/2/3 233/2/3 244/2/3
f 246/2/3 225/2/3 234/2/3
f 246/5/3 234/5/3 245/5/3
f 247/1/3 227/1/3 226/1/3
f 247/2/3 225/2/3 246/2/3
f 247/1/3 226/1/3 225/1/3
f 248/1/3 227/1/3 247/1/3
f 249/1/3 227/1/3 248/1/3
f 250/3/3 237/3/3 236/3/3
f 251/4/3 238/4/3 237/4/3
f 251/3/3 237/3/3 250/3/3
f 252/3/3 239/3/3 238/3/3
f 252/4/3 238/4/3 251/4/3
f 253/2/3 241/2/3 240/2/3
f 253/2/3 243/2/3 242/2/3
f 253/2/3 242/2/3 241/2/3
f 254/2/3 243/2/3 253/2/3
f 255/5/3 244/5/3 243/5/3
f 255/2/3 243/2/3 254/2/3
f 256/2/3 246/2/3 245/2/3
f 256/5/3 244/5/3 255/5/3
f 256/2/3 248/2/3 247/2/3
f 256/2/3 247/2/3 246/2/3
f 256/2/3 245/2/3 244/2/3
f 257/2/3 248/2/3 256/2/3
f 258/2/3 248/2/3 257/2/3
f 259/3/3 252/3/3 251/3/3
f 260/3/3 239/3/3 252/3/3
f 260/3/3 252/3/3 259/3/3
f 261/1/3 254/1/3 253/1/3
f 262/1/3 254/1/3 261/1/3
f 263/2/3 255/2/3 254/2/3
f 263/2/3 256/2/3 255/2/3
f 263/2/3 257/2/3 256/2/3
f 264/2/3 257/2/3 263/2/3
f 265/2/3 257/2/3 264/2/3
f 266/2/3 257/2/3 265/2/3
f 267/1/3 258/1/3 257/1/3
f 268/1/3 258/1/3 267/1/3
f 269/1/3 254/1/3 262/1/3
f 270/2/3 263/2/3 254/2/3
f 270/1/3 254/1/3 269/1/3
f 271/1/3 264/1/3 263/1/3
f 271/2/3 263/2/3 270/2/3
f 272/2/3 265/2/3 264/2/3
f 272/1/3 264/1/3 271/1/3
f 273/1/3 266/1/3 265/1/3
f 273/2/3 265/2/3 272/2/3
f 274/2/3 257/2/3 266/2/3
f 274/1/3 266/1/3 273/1/3
f 275/1/3 267/1/3 257/1/3
f 275/2/3 257/2/3 274/2/3
f 276/1/3 267/1/3 275/1/3
f 277/1/3 272/1/3 271/1/3
f 278/1/3 272/1/3 277/1/3
f 279/1/3 274/1/3 273/1/3
f 280/1/3 274/1/3 279/1/3
f 281/1/4 282/1/4 287/1/4
f 287/1/4 282/1/4 288/1/4
f 283/1/4 284/1/4 289/1/4
f 289/1/4 284/1/4 290/1/4
f 285/1/4 286/1/4 296/1/4
f 287/1/4 288/1/4 297/1/4
f 286/2/4 287/2/4 297/2/4
f 288/2/4 289/2/4 298/2/4
f 297/1/4 288/1/4 298/1/4
f 289/1/4 290/1/4 299/1/4
f 298/2/4 289/2/4 299/2/4
f 290/2/4 291/2/4 300/2/4
f 299/1/4 290/1/4 300/1/4
f 291/1/4 292/1/4 301/1/4
f 293/3/4 294/3/4 304/3/4
f 304/3/4 294/3/4 305/3/4
f 295/1/4 296/1/4 306/1/4
f 296/1/4 286/1/4 307/1/4
f 306/1/4 296/1/4 307/1/4
f 286/2/4 297/2/4 307/2/4
f 297/2/4 298/2/4 307/2/4
f 298/2/4 299/2/4 307/2/4
f 299/2/4 300/2/4 307/2/4
f 307/2/4 300/2/4 308/2/4
f 308/2/4 300/2/4 309/2/4
f 301/1/4 302/1/4 310/1/4
f 309/2/4 300/2/4 310/2/4
f 300/2/4 291/2/4 310/2/4
f 291/1/4 301/1/4 310/1/4
f 310/1/4 302/1/4 311/1/4
f 303/3/4 304/3/4 313/3/4
f 304/4/4 305/4/4 314/4/4
f 313/3/4 304/3/4 314/3/4
f 305/3/4 294/3/4 315/3/4
f 314/4/4 305/4/4 315/4/4
f 315/3/4 294/3/4 316/3/4
f 307/2/4 308/2/4 317/2/4
f 306/2/4 307/2/4 317/2/4
f 317/2/4 308/2/4 318/2/4
f 318/2/4 308/2/4 319/2/4
f 308/5/4 309/5/4 320/5/4
f 319/2/4 308/2/4 320/2/4
f 309/2/4 310/2/4 321/2/4
f 320/5/4 309/5/4 321/5/4
f 310/2/4 311/2/4 321/2/4
f 321/2/4 311/2/4 322/2/4
f 322/2/4 311/2/4 323/2/4
f 323/2/4 311/2/4 324/2/4
f 324/2/4 311/2/4 325/2/4
f 312/3/4 313/3/4 328/3/4
f 313/4/4 314/4/4 329/4/4
f 328/3/4 313/3/4 329/3/4
f 314/3/4 315/3/4 330/3/4
f 329/4/4 314/4/4 330/4/4
f 330/3/4 315/3/4 331/3/4
f 320/2/4 321/2/4 332/2/4
f 321/2/4 322/2/4 332/2/4
f 322/5/4 323/5/4 332/5/4
f 323/2/4 324/2/4 333/2/4
f 332/5/4 323/5/4 333/5/4
f 327/3/4 328/3/4 335/3/4
f 328/4/4 329/4/4 336/4/4
f 335/3/4 328/3/4 336/3/4
f 329/3/4 330/3/4 337/3/4
f 336/4/4 329/4/4 337/4/4
f 337/3/4 330/3/4 338/3/4
f 317/1/4 318/1/4 339/1/4
f 316/1/4 317/1/4 339/1/4
f 339/1/4 318/1/4 340/1/4
f 318/2/4 319/2/4 341/2/4
f 340/1/4 318/1/4 341/1/4
f 332/2/4 333/2/4 342/2/4
f 324/1/4 325/1/4 342/1/4
f 325/1/4 326/1/4 342/1/4
f 333/2/4 324/2/4 342/2/4
f 342/1/4 326/1/4 343/1/4
f 343/1/4 326/1/4 344/1/4
f 339/3/4 340/3/4 345/3/4
f 338/3/4 339/3/4 345/3/4
f 334/3/4 335/3/4 345/3/4
f 337/3/4 338/3/4 345/3/4
f 336/3/4 337/3/4 345/3/4
f 335/3/4 336/3/4 345/3/4
f 345/3/4 340/3/4 346/3/4
f 346/3/4 340/3/4 347/3/4
f 347/3/4 340/3/4 348/3/4
f 348/3/4 340/3/4 349/3/4
f 349/3/4 340/3/4 350/3/4
f 340/2/4 341/2/4 351/2/4
f 350/3/4 340/3/4 351/3/4
f 341/2/4 319/2/4 352/2/4
f 351/2/4 341/2/4 352/2/4
f 342/2/4 343/2/4 353/2/4
f 332/2/4 342/2/4 353/2/4
f 353/2/4 343/2/4 354/2/4
f 346/3/4 347/3/4 356/3/4
f 347/4/4 348/4/4 357/4/4
f 356/3/4 347/3/4 357/3/4
f 348/3/4 349/3/4 358/3/4
f 357/4/4 348/4/4 358/4/4
f 358/3/4 349/3/4 359/3/4
f 320/2/4 332/2/4 361/2/4
f 332/2/4 353/2/4 361/2/4
f 361/2/4 353/2/4 362/2/4
f 357/3/4 358/3/4 363/3/4
f 358/4/4 359/4/4 364/4/4
f 363/3/4 358/3/4 364/3/4
f 359/3/4 360/3/4 365/3/4
f 364/4/4 359/4/4 365/4/4
f 365/3/4 360/3/4 366/3/4
f 350/1/4 351/1/4 367/1/4
f 351/1/4 352/1/4 367/1/4
f 367/1/4 352/1/4 368/1/4
f 352/2/4 319/2/4 369/2/4
f 368/1/4 352/1/4 369/1/4
f 319/5/4 320/5/4 370/5/4
f 369/2/4 319/2/4 370/2/4
f 320/2/4 361/2/4 371/2/4
f 370/5/4 320/5/4 371/5/4
f 371/2/4 361/2/4 372/2/4
f 361/5/4 362/5/4 373/5/4
f 372/2/4 361/2/4 373/2/4
f 362/2/4 353/2/4 374/2/4
f 373/5/4 362/5/4 374/5/4
f 354/1/4 355/1/4 375/1/4
f 374/2/4 353/2/4 375/2/4
f 353/1/4 354/1/4 375/1/4
f 375/1/4 355/1/4 376/1/4
f 376/1/4 355/1/4 377/1/4
f 364/3/4 365/3/4 378/3/4
f 365/4/4 366/4/4 379/4/4
f 378/3/4 365/3/4 379/3/4
f 366/3/4 367/3/4 380/3/4
f 379/4/4 366/4/4 380/4/4
f 368/2/4 369/2/4 381/2/4
f 370/2/4 371/2/4 381/2/4
f 369/2/4 370/2/4 381/2/4
f 381/2/4 371/2/4 382/2/4
f 371/5/4 372/5/4 383/5/4
f 382/2/4 371/2/4 383/2/4
f 373/2/4 374/2/4 384/2/4
f 383/5/4 372/5/4 384/5/4
f 375/2/4 376/2/4 384/2/4
f 374/2/4 375/2/4 384/2/4
f 372/2/4 373/2/4 384/2/4
f 384/2/4 376/2/4 385/2/4
f 385/2/4 376/2/4 386/2/4
f 379/3/4 380/3/4 387/3/4
f 380/3/4 367/3/4 388/3/4
f 387/3/4 380/3/4 388/3/4
f 381/1/4 382/1/4 389/1/4
f 389/1/4 382/1/4 390/1/4
f 382/2/4 383/2/4 391/2/4
f 383/2/4 384/2/4 391/2/4
f 384/2/4 385/2/4 391/2/4
f 391/2/4 385/2/4 392/2/4
f 392/2/4 385/2/4 393/2/4
f 393/2/4 385/2/4 394/2/4
f 385/1/4 386/1/4 395/1/4
f 395/1/4 386/1/4 396/1/4
f 390/1/4 382/1/4 397/1/4
f 382/2/4 391/2/4 398/2/4
f 397/1/4 382/1/4 398/1/4
f 391/1/4 392/1/4 399/1/4
f 398/2/4 391/2/4 399/2/4
f 392/2/4 393/2/4 400/2/4
f 399/1/4 392/1/4 400/1/4
f 393/1/4 394/1/4 401/1/4
f 400/2/4 393/2/4 401/2/4
f 394/2/4 385/2/4 402/2/4
f 401/1/4 394/1/4 402/1/4
f 385/1/4 395/1/4 403/1/4
f 402/2/4 385/2/4 403/2/4
f 403/1/4 395/1/4 404/1/4
f 399/1/4 400/1/4 405/1/4
f 405/1/4 400/1/4 406/1/4
f 401/1/4 402/1/4 407/1/4
f 407/1/4 402/1/4 408/1/4
f 411/3/5 410/3/5 409/3/5
f 412/3/5 410/3/5 411/3/5
f 417/3/5 414/3/5 413/3/5
f 418/3/5 414/3/5 417/3/5
f 419/3/5 416/3/5 415/3/5
f 420/3/5 416/3/5 419/3/5
f 425/3/5 422/3/5 421/3/5
f 426/3/5 422/3/5 425/3/5
f 427/3/5 424/3/5 423/3/5
f 428/3/5 424/3/5 427/3/5
f 433/3/5 430/3/5 429/3/5
f 434/3/5 430/3/5 433/3/5
f 435/3/5 432/3/5 431/3/5
f 436/3/5 432/3/5 435/3/5
f 441/3/5 438/3/5 437/3/5
f 442/3/5 438/3/5 441/3/5
f 443/3/5 440/3/5 439/3/5
f 444/3/5 440/3/5 443/3/5
f 449/1/5 446/1/5 445/1/5
f 450/1/5 446/1/5 449/1/5
f 451/1/5 448/1/5 447/1/5
f 452/1/5 448/1/5 451/1/5
f 459/1/5 454/1/5 453/1/5
f 460/2/5 455/2/5 454/2/5
f 460/1/5 454/1/5 459/1/5
f 461/2/5 455/2/5 460/2/5
f 462/2/5 457/2/5 456/2/5
f 463/1/5 458/1/5 457/1/5
f 463/2/5 457/2/5 462/2/5
f 464/1/5 458/1/5 463/1/5
f 469/1/5 466/1/5 465/1/5
f 470/1/5 466/1/5 469/1/5
f 471/1/5 468/1/5 467/1/5
f 472/1/5 468/1/5 471/1/5
f 477/1/5 474/1/5 473/1/5
f 478/1/5 474/1/5 477/1/5
f 479/1/5 476/1/5 475/1/5
f 480/1/5 476/1/5 479/1/5
f 485/1/5 482/1/5 481/1/5
f 486/1/5 482/1/5 485/1/5
f 487/1/5 484/1/5 483/1/5
f 488/1/5 484/1/5 487/1/5
f 489/3/6 490/3/6 493/3/6
f 493/3/6 490/3/6 494/3/6
f 491/3/6 492/3/6 495/3/6
f 495/3/6 492/3/6 496/3/6
f 497/3/6 498/3/6 501/3/6
f 501/3/6 498/3/6 502/3/6
f 499/3/6 500/3/6 503/3/6
f 503/3/6 500/3/6 504/3/6
f 505/3/6 506/3/6 509/3/6
f 509/3/6 506/3/6 510/3/6
f 507/3/6 508/3/6 511/3/6
f 511/3/6 508/3/6 512/3/6
f 513/1/6 514/1/6 517/1/6
f 517/1/6 514/1/6 518/1/6
f 515/1/6 516/1/6 519/1/6
f 519/1/6 516/1/6 520/1/6
f 521/1/6 522/1/6 525/1/6
f 525/1/6 522/1/6 526/1/6
f 523/1/6 524/1/6 527/1/6
f 527/1/6 524/1/6 528/1/6
f 529/1/6 530/1/6 533/1/6
f 533/1/6 530/1/6 534/1/6
f 531/1/6 532/1/6 535/1/6
f 535/1/6 532/1/6 536/1/6
f 537/1/6 538/1/6 545/1/6
f 538/2/6 539/2/6 546/2/6
f 545/1/6 538/1/6 546/1/6
f 546/2/6 539/2/6 547/2/6
f 540/2/6 541/2/6 548/2/6
f 548/2/6 541/2/6 549/2/6
f 542/2/6 543/2/6 550/2/6
f 543/1/6 544/1/6 551/1/6
f 550/2/6 543/2/6 551/2/6
f 551/1/6 544/1/6 552/1/6
f 553/1/6 554/1/6 557/1/6
f 557/1/6 554/1/6 558/1/6
f 555/1/6 556/1/6 559/1/6
f 559/1/6 556/1/6 560/1/6
