# MagicaVoxel @ Ephtracy

# group
o 

# material
mtllib SnowBullet1.mtl
usemtl palette

# normals
vn -1 0 0
vn 1 0 0
vn 0 0 1
vn 0 0 -1
vn 0 -1 0
vn 0 1 0

# texcoords
vt 0.751953 0.5
vt 0.958984 0.5

# verts
v 1.4 3.9 -1.9
v 1.4 3.9 -2.1
v 1.4 4.1 -1.9
v 1.4 4.1 -2.1
v 1.5 3.7 -1.9
v 1.5 3.7 -2.1
v 1.5 3.9 -1.7
v 1.5 3.9 -1.9
v 1.5 3.9 -2.1
v 1.5 3.9 -2.3
v 1.5 4.1 -1.7
v 1.5 4.1 -1.9
v 1.5 4.1 -2.1
v 1.5 4.1 -2.3
v 1.5 4.3 -1.9
v 1.5 4.3 -2.1
v 1.6 3.6 -1.9
v 1.6 3.6 -2.1
v 1.6 3.7 -1.8
v 1.6 3.7 -1.9
v 1.6 3.7 -2.1
v 1.6 3.7 -2.2
v 1.6 3.8 -1.7
v 1.6 3.8 -1.8
v 1.6 3.8 -2.2
v 1.6 3.8 -2.3
v 1.6 3.9 -1.6
v 1.6 3.9 -1.7
v 1.6 3.9 -1.9
v 1.6 3.9 -2.1
v 1.6 3.9 -2.3
v 1.6 3.9 -2.4
v 1.6 4.1 -1.6
v 1.6 4.1 -1.7
v 1.6 4.1 -1.9
v 1.6 4.1 -2.1
v 1.6 4.1 -2.3
v 1.6 4.1 -2.4
v 1.6 4.2 -1.7
v 1.6 4.2 -1.8
v 1.6 4.2 -2.2
v 1.6 4.2 -2.3
v 1.6 4.3 -1.8
v 1.6 4.3 -1.9
v 1.6 4.3 -2.1
v 1.6 4.3 -2.2
v 1.6 4.4 -1.9
v 1.6 4.4 -2.1
v 1.7 3.7 -1.7
v 1.7 3.7 -1.8
v 1.7 3.7 -2.2
v 1.7 3.7 -2.3
v 1.7 3.8 -1.7
v 1.7 3.8 -1.8
v 1.7 3.8 -2.2
v 1.7 3.8 -2.3
v 1.7 4.2 -1.7
v 1.7 4.2 -1.8
v 1.7 4.2 -2.2
v 1.7 4.2 -2.3
v 1.7 4.3 -1.7
v 1.7 4.3 -1.8
v 1.7 4.3 -2.2
v 1.7 4.3 -2.3
v 1.8 3.5 -1.9
v 1.8 3.5 -2.1
v 1.8 3.6 -1.7
v 1.8 3.6 -1.9
v 1.8 3.6 -2.1
v 1.8 3.6 -2.3
v 1.8 3.7 -1.6
v 1.8 3.7 -1.7
v 1.8 3.7 -1.8
v 1.8 3.7 -1.9
v 1.8 3.7 -2.1
v 1.8 3.7 -2.2
v 1.8 3.7 -2.3
v 1.8 3.7 -2.4
v 1.8 3.8 -1.7
v 1.8 3.8 -2.3
v 1.8 3.9 -1.5
v 1.8 3.9 -1.6
v 1.8 3.9 -1.7
v 1.8 3.9 -2.3
v 1.8 3.9 -2.4
v 1.8 3.9 -2.5
v 1.8 4.1 -1.5
v 1.8 4.1 -1.6
v 1.8 4.1 -1.7
v 1.8 4.1 -2.3
v 1.8 4.1 -2.4
v 1.8 4.1 -2.5
v 1.8 4.2 -1.7
v 1.8 4.2 -2.3
v 1.8 4.3 -1.6
v 1.8 4.3 -1.7
v 1.8 4.3 -1.8
v 1.8 4.3 -1.9
v 1.8 4.3 -2.1
v 1.8 4.3 -2.2
v 1.8 4.3 -2.3
v 1.8 4.3 -2.4
v 1.8 4.4 -1.7
v 1.8 4.4 -1.9
v 1.8 4.4 -2.1
v 1.8 4.4 -2.3
v 1.8 4.5 -1.9
v 1.8 4.5 -2.1
v 2.1 3.5 -1.9
v 2.1 3.5 -2.1
v 2.1 3.6 -1.7
v 2.1 3.6 -1.9
v 2.1 3.6 -2.1
v 2.1 3.6 -2.3
v 2.1 3.7 -1.6
v 2.1 3.7 -1.7
v 2.1 3.7 -1.9
v 2.1 3.7 -2.1
v 2.1 3.7 -2.3
v 2.1 3.7 -2.4
v 2.1 3.9 -1.5
v 2.1 3.9 -1.6
v 2.1 3.9 -1.7
v 2.1 3.9 -2.3
v 2.1 3.9 -2.4
v 2.1 3.9 -2.5
v 2.1 4.1 -1.5
v 2.1 4.1 -1.6
v 2.1 4.1 -1.7
v 2.1 4.1 -2.3
v 2.1 4.1 -2.4
v 2.1 4.1 -2.5
v 2.1 4.3 -1.6
v 2.1 4.3 -1.7
v 2.1 4.3 -1.9
v 2.1 4.3 -2.1
v 2.1 4.3 -2.3
v 2.1 4.3 -2.4
v 2.1 4.4 -1.7
v 2.1 4.4 -1.9
v 2.1 4.4 -2.1
v 2.1 4.4 -2.3
v 2.1 4.5 -1.9
v 2.1 4.5 -2.1
v 2.2 3.7 -1.7
v 2.2 3.7 -1.8
v 2.2 3.7 -2.2
v 2.2 3.7 -2.3
v 2.2 3.8 -1.7
v 2.2 3.8 -1.8
v 2.2 3.8 -2.2
v 2.2 3.8 -2.3
v 2.2 4.2 -1.7
v 2.2 4.2 -1.8
v 2.2 4.2 -2.2
v 2.2 4.2 -2.3
v 2.2 4.3 -1.7
v 2.2 4.3 -1.8
v 2.2 4.3 -2.2
v 2.2 4.3 -2.3
v 2.3 3.6 -1.9
v 2.3 3.6 -2.1
v 2.3 3.7 -1.8
v 2.3 3.7 -1.9
v 2.3 3.7 -2.1
v 2.3 3.7 -2.2
v 2.3 3.8 -1.7
v 2.3 3.8 -1.8
v 2.3 3.8 -2.2
v 2.3 3.8 -2.3
v 2.3 3.9 -1.6
v 2.3 3.9 -1.7
v 2.3 3.9 -1.9
v 2.3 3.9 -2.1
v 2.3 3.9 -2.3
v 2.3 3.9 -2.4
v 2.3 4.1 -1.6
v 2.3 4.1 -1.7
v 2.3 4.1 -1.9
v 2.3 4.1 -2.1
v 2.3 4.1 -2.3
v 2.3 4.1 -2.4
v 2.3 4.2 -1.7
v 2.3 4.2 -1.8
v 2.3 4.2 -2.2
v 2.3 4.2 -2.3
v 2.3 4.3 -1.8
v 2.3 4.3 -1.9
v 2.3 4.3 -2.1
v 2.3 4.3 -2.2
v 2.3 4.4 -1.9
v 2.3 4.4 -2.1
v 2.4 3.7 -1.9
v 2.4 3.7 -2.1
v 2.4 3.9 -1.7
v 2.4 3.9 -1.9
v 2.4 3.9 -2.1
v 2.4 3.9 -2.3
v 2.4 4.1 -1.7
v 2.4 4.1 -1.9
v 2.4 4.1 -2.1
v 2.4 4.1 -2.3
v 2.4 4.3 -1.9
v 2.4 4.3 -2.1
v 2.5 3.9 -1.9
v 2.5 3.9 -2.1
v 2.5 4.1 -1.9
v 2.5 4.1 -2.1
v 1.8 3.9 -1.5
v 1.8 4.1 -1.5
v 1.9 3.9 -1.5
v 1.9 4.1 -1.5
v 2.1 3.9 -1.5
v 2.1 4.1 -1.5
v 1.6 3.9 -1.6
v 1.6 4.1 -1.6
v 1.7 3.9 -1.6
v 1.7 4.1 -1.6
v 1.8 3.7 -1.6
v 1.8 3.9 -1.6
v 1.8 4.1 -1.6
v 1.8 4.3 -1.6
v 1.9 3.7 -1.6
v 1.9 3.9 -1.6
v 1.9 4.1 -1.6
v 1.9 4.3 -1.6
v 2.1 3.7 -1.6
v 2.1 3.9 -1.6
v 2.1 4.1 -1.6
v 2.1 4.3 -1.6
v 2.3 3.9 -1.6
v 2.3 4.1 -1.6
v 1.5 3.9 -1.7
v 1.5 4.1 -1.7
v 1.6 3.8 -1.7
v 1.6 3.9 -1.7
v 1.6 4.1 -1.7
v 1.6 4.2 -1.7
v 1.7 3.7 -1.7
v 1.7 3.8 -1.7
v 1.7 3.9 -1.7
v 1.7 4.1 -1.7
v 1.7 4.2 -1.7
v 1.7 4.3 -1.7
v 1.8 3.6 -1.7
v 1.8 3.7 -1.7
v 1.8 3.8 -1.7
v 1.8 3.9 -1.7
v 1.8 4.1 -1.7
v 1.8 4.2 -1.7
v 1.8 4.3 -1.7
v 1.8 4.4 -1.7
v 1.9 3.6 -1.7
v 1.9 3.7 -1.7
v 1.9 4.3 -1.7
v 1.9 4.4 -1.7
v 2.1 3.6 -1.7
v 2.1 3.7 -1.7
v 2.1 3.9 -1.7
v 2.1 4.1 -1.7
v 2.1 4.3 -1.7
v 2.1 4.4 -1.7
v 2.2 3.7 -1.7
v 2.2 3.8 -1.7
v 2.2 4.2 -1.7
v 2.2 4.3 -1.7
v 2.3 3.8 -1.7
v 2.3 3.9 -1.7
v 2.3 4.1 -1.7
v 2.3 4.2 -1.7
v 2.4 3.9 -1.7
v 2.4 4.1 -1.7
v 1.6 3.7 -1.8
v 1.6 3.8 -1.8
v 1.6 4.2 -1.8
v 1.6 4.3 -1.8
v 1.7 3.7 -1.8
v 1.7 3.8 -1.8
v 1.7 4.2 -1.8
v 1.7 4.3 -1.8
v 2.2 3.7 -1.8
v 2.2 3.8 -1.8
v 2.2 4.2 -1.8
v 2.2 4.3 -1.8
v 2.3 3.7 -1.8
v 2.3 3.8 -1.8
v 2.3 4.2 -1.8
v 2.3 4.3 -1.8
v 1.4 3.9 -1.9
v 1.4 4.1 -1.9
v 1.5 3.7 -1.9
v 1.5 3.9 -1.9
v 1.5 4.1 -1.9
v 1.5 4.3 -1.9
v 1.6 3.6 -1.9
v 1.6 3.7 -1.9
v 1.6 3.9 -1.9
v 1.6 4.1 -1.9
v 1.6 4.3 -1.9
v 1.6 4.4 -1.9
v 1.7 3.6 -1.9
v 1.7 3.7 -1.9
v 1.7 4.3 -1.9
v 1.7 4.4 -1.9
v 1.8 3.5 -1.9
v 1.8 3.6 -1.9
v 1.8 3.7 -1.9
v 1.8 4.3 -1.9
v 1.8 4.4 -1.9
v 1.8 4.5 -1.9
v 1.9 3.5 -1.9
v 1.9 3.6 -1.9
v 1.9 4.4 -1.9
v 1.9 4.5 -1.9
v 2.1 3.5 -1.9
v 2.1 3.6 -1.9
v 2.1 3.7 -1.9
v 2.1 4.3 -1.9
v 2.1 4.4 -1.9
v 2.1 4.5 -1.9
v 2.3 3.6 -1.9
v 2.3 3.7 -1.9
v 2.3 3.9 -1.9
v 2.3 4.1 -1.9
v 2.3 4.3 -1.9
v 2.3 4.4 -1.9
v 2.4 3.7 -1.9
v 2.4 3.9 -1.9
v 2.4 4.1 -1.9
v 2.4 4.3 -1.9
v 2.5 3.9 -1.9
v 2.5 4.1 -1.9
v 1.4 3.9 -2.1
v 1.4 4.1 -2.1
v 1.5 3.7 -2.1
v 1.5 3.9 -2.1
v 1.5 4.1 -2.1
v 1.5 4.3 -2.1
v 1.6 3.6 -2.1
v 1.6 3.7 -2.1
v 1.6 3.9 -2.1
v 1.6 4.1 -2.1
v 1.6 4.3 -2.1
v 1.6 4.4 -2.1
v 1.7 3.6 -2.1
v 1.7 3.7 -2.1
v 1.7 4.3 -2.1
v 1.7 4.4 -2.1
v 1.8 3.5 -2.1
v 1.8 3.6 -2.1
v 1.8 3.7 -2.1
v 1.8 4.3 -2.1
v 1.8 4.4 -2.1
v 1.8 4.5 -2.1
v 1.9 3.5 -2.1
v 1.9 3.6 -2.1
v 1.9 4.4 -2.1
v 1.9 4.5 -2.1
v 2.1 3.5 -2.1
v 2.1 3.6 -2.1
v 2.1 3.7 -2.1
v 2.1 4.3 -2.1
v 2.1 4.4 -2.1
v 2.1 4.5 -2.1
v 2.3 3.6 -2.1
v 2.3 3.7 -2.1
v 2.3 3.9 -2.1
v 2.3 4.1 -2.1
v 2.3 4.3 -2.1
v 2.3 4.4 -2.1
v 2.4 3.7 -2.1
v 2.4 3.9 -2.1
v 2.4 4.1 -2.1
v 2.4 4.3 -2.1
v 2.5 3.9 -2.1
v 2.5 4.1 -2.1
v 1.6 3.7 -2.2
v 1.6 3.8 -2.2
v 1.6 4.2 -2.2
v 1.6 4.3 -2.2
v 1.7 3.7 -2.2
v 1.7 3.8 -2.2
v 1.7 4.2 -2.2
v 1.7 4.3 -2.2
v 2.2 3.7 -2.2
v 2.2 3.8 -2.2
v 2.2 4.2 -2.2
v 2.2 4.3 -2.2
v 2.3 3.7 -2.2
v 2.3 3.8 -2.2
v 2.3 4.2 -2.2
v 2.3 4.3 -2.2
v 1.5 3.9 -2.3
v 1.5 4.1 -2.3
v 1.6 3.8 -2.3
v 1.6 3.9 -2.3
v 1.6 4.1 -2.3
v 1.6 4.2 -2.3
v 1.7 3.7 -2.3
v 1.7 3.8 -2.3
v 1.7 3.9 -2.3
v 1.7 4.1 -2.3
v 1.7 4.2 -2.3
v 1.7 4.3 -2.3
v 1.8 3.6 -2.3
v 1.8 3.7 -2.3
v 1.8 3.8 -2.3
v 1.8 3.9 -2.3
v 1.8 4.1 -2.3
v 1.8 4.2 -2.3
v 1.8 4.3 -2.3
v 1.8 4.4 -2.3
v 1.9 3.6 -2.3
v 1.9 3.7 -2.3
v 1.9 4.3 -2.3
v 1.9 4.4 -2.3
v 2.1 3.6 -2.3
v 2.1 3.7 -2.3
v 2.1 3.9 -2.3
v 2.1 4.1 -2.3
v 2.1 4.3 -2.3
v 2.1 4.4 -2.3
v 2.2 3.7 -2.3
v 2.2 3.8 -2.3
v 2.2 4.2 -2.3
v 2.2 4.3 -2.3
v 2.3 3.8 -2.3
v 2.3 3.9 -2.3
v 2.3 4.1 -2.3
v 2.3 4.2 -2.3
v 2.4 3.9 -2.3
v 2.4 4.1 -2.3
v 1.6 3.9 -2.4
v 1.6 4.1 -2.4
v 1.7 3.9 -2.4
v 1.7 4.1 -2.4
v 1.8 3.7 -2.4
v 1.8 3.9 -2.4
v 1.8 4.1 -2.4
v 1.8 4.3 -2.4
v 1.9 3.7 -2.4
v 1.9 3.9 -2.4
v 1.9 4.1 -2.4
v 1.9 4.3 -2.4
v 2.1 3.7 -2.4
v 2.1 3.9 -2.4
v 2.1 4.1 -2.4
v 2.1 4.3 -2.4
v 2.3 3.9 -2.4
v 2.3 4.1 -2.4
v 1.8 3.9 -2.5
v 1.8 4.1 -2.5
v 1.9 3.9 -2.5
v 1.9 4.1 -2.5
v 2.1 3.9 -2.5
v 2.1 4.1 -2.5
v 1.8 3.5 -1.9
v 1.9 3.5 -1.9
v 2.1 3.5 -1.9
v 1.8 3.5 -2.1
v 1.9 3.5 -2.1
v 2.1 3.5 -2.1
v 1.8 3.6 -1.7
v 1.9 3.6 -1.7
v 2.1 3.6 -1.7
v 1.6 3.6 -1.9
v 1.7 3.6 -1.9
v 1.8 3.6 -1.9
v 1.9 3.6 -1.9
v 2.1 3.6 -1.9
v 2.3 3.6 -1.9
v 1.6 3.6 -2.1
v 1.7 3.6 -2.1
v 1.8 3.6 -2.1
v 1.9 3.6 -2.1
v 2.1 3.6 -2.1
v 2.3 3.6 -2.1
v 1.8 3.6 -2.3
v 1.9 3.6 -2.3
v 2.1 3.6 -2.3
v 1.8 3.7 -1.6
v 1.9 3.7 -1.6
v 2.1 3.7 -1.6
v 1.7 3.7 -1.7
v 1.8 3.7 -1.7
v 1.9 3.7 -1.7
v 2.1 3.7 -1.7
v 2.2 3.7 -1.7
v 1.6 3.7 -1.8
v 1.7 3.7 -1.8
v 1.8 3.7 -1.8
v 2.2 3.7 -1.8
v 2.3 3.7 -1.8
v 1.5 3.7 -1.9
v 1.6 3.7 -1.9
v 1.7 3.7 -1.9
v 1.8 3.7 -1.9
v 2.1 3.7 -1.9
v 2.3 3.7 -1.9
v 2.4 3.7 -1.9
v 1.5 3.7 -2.1
v 1.6 3.7 -2.1
v 1.7 3.7 -2.1
v 1.8 3.7 -2.1
v 2.1 3.7 -2.1
v 2.3 3.7 -2.1
v 2.4 3.7 -2.1
v 1.6 3.7 -2.2
v 1.7 3.7 -2.2
v 1.8 3.7 -2.2
v 2.2 3.7 -2.2
v 2.3 3.7 -2.2
v 1.7 3.7 -2.3
v 1.8 3.7 -2.3
v 1.9 3.7 -2.3
v 2.1 3.7 -2.3
v 2.2 3.7 -2.3
v 1.8 3.7 -2.4
v 1.9 3.7 -2.4
v 2.1 3.7 -2.4
v 1.6 3.8 -1.7
v 1.7 3.8 -1.7
v 2.2 3.8 -1.7
v 2.3 3.8 -1.7
v 1.6 3.8 -1.8
v 1.7 3.8 -1.8
v 2.2 3.8 -1.8
v 2.3 3.8 -1.8
v 1.6 3.8 -2.2
v 1.7 3.8 -2.2
v 2.2 3.8 -2.2
v 2.3 3.8 -2.2
v 1.6 3.8 -2.3
v 1.7 3.8 -2.3
v 2.2 3.8 -2.3
v 2.3 3.8 -2.3
v 1.8 3.9 -1.5
v 1.9 3.9 -1.5
v 2.1 3.9 -1.5
v 1.6 3.9 -1.6
v 1.7 3.9 -1.6
v 1.8 3.9 -1.6
v 1.9 3.9 -1.6
v 2.1 3.9 -1.6
v 2.3 3.9 -1.6
v 1.5 3.9 -1.7
v 1.6 3.9 -1.7
v 1.7 3.9 -1.7
v 1.8 3.9 -1.7
v 2.1 3.9 -1.7
v 2.3 3.9 -1.7
v 2.4 3.9 -1.7
v 1.4 3.9 -1.9
v 1.5 3.9 -1.9
v 1.6 3.9 -1.9
v 2.3 3.9 -1.9
v 2.4 3.9 -1.9
v 2.5 3.9 -1.9
v 1.4 3.9 -2.1
v 1.5 3.9 -2.1
v 1.6 3.9 -2.1
v 2.3 3.9 -2.1
v 2.4 3.9 -2.1
v 2.5 3.9 -2.1
v 1.5 3.9 -2.3
v 1.6 3.9 -2.3
v 1.7 3.9 -2.3
v 1.8 3.9 -2.3
v 2.1 3.9 -2.3
v 2.3 3.9 -2.3
v 2.4 3.9 -2.3
v 1.6 3.9 -2.4
v 1.7 3.9 -2.4
v 1.8 3.9 -2.4
v 1.9 3.9 -2.4
v 2.1 3.9 -2.4
v 2.3 3.9 -2.4
v 1.8 3.9 -2.5
v 1.9 3.9 -2.5
v 2.1 3.9 -2.5
v 1.8 4.1 -1.5
v 1.9 4.1 -1.5
v 2.1 4.1 -1.5
v 1.6 4.1 -1.6
v 1.7 4.1 -1.6
v 1.8 4.1 -1.6
v 1.9 4.1 -1.6
v 2.1 4.1 -1.6
v 2.3 4.1 -1.6
v 1.5 4.1 -1.7
v 1.6 4.1 -1.7
v 1.7 4.1 -1.7
v 1.8 4.1 -1.7
v 2.1 4.1 -1.7
v 2.3 4.1 -1.7
v 2.4 4.1 -1.7
v 1.4 4.1 -1.9
v 1.5 4.1 -1.9
v 1.6 4.1 -1.9
v 2.3 4.1 -1.9
v 2.4 4.1 -1.9
v 2.5 4.1 -1.9
v 1.4 4.1 -2.1
v 1.5 4.1 -2.1
v 1.6 4.1 -2.1
v 2.3 4.1 -2.1
v 2.4 4.1 -2.1
v 2.5 4.1 -2.1
v 1.5 4.1 -2.3
v 1.6 4.1 -2.3
v 1.7 4.1 -2.3
v 1.8 4.1 -2.3
v 2.1 4.1 -2.3
v 2.3 4.1 -2.3
v 2.4 4.1 -2.3
v 1.6 4.1 -2.4
v 1.7 4.1 -2.4
v 1.8 4.1 -2.4
v 1.9 4.1 -2.4
v 2.1 4.1 -2.4
v 2.3 4.1 -2.4
v 1.8 4.1 -2.5
v 1.9 4.1 -2.5
v 2.1 4.1 -2.5
v 1.6 4.2 -1.7
v 1.7 4.2 -1.7
v 2.2 4.2 -1.7
v 2.3 4.2 -1.7
v 1.6 4.2 -1.8
v 1.7 4.2 -1.8
v 2.2 4.2 -1.8
v 2.3 4.2 -1.8
v 1.6 4.2 -2.2
v 1.7 4.2 -2.2
v 2.2 4.2 -2.2
v 2.3 4.2 -2.2
v 1.6 4.2 -2.3
v 1.7 4.2 -2.3
v 2.2 4.2 -2.3
v 2.3 4.2 -2.3
v 1.8 4.3 -1.6
v 1.9 4.3 -1.6
v 2.1 4.3 -1.6
v 1.7 4.3 -1.7
v 1.8 4.3 -1.7
v 1.9 4.3 -1.7
v 2.1 4.3 -1.7
v 2.2 4.3 -1.7
v 1.6 4.3 -1.8
v 1.7 4.3 -1.8
v 1.8 4.3 -1.8
v 2.2 4.3 -1.8
v 2.3 4.3 -1.8
v 1.5 4.3 -1.9
v 1.6 4.3 -1.9
v 1.7 4.3 -1.9
v 1.8 4.3 -1.9
v 2.1 4.3 -1.9
v 2.3 4.3 -1.9
v 2.4 4.3 -1.9
v 1.5 4.3 -2.1
v 1.6 4.3 -2.1
v 1.7 4.3 -2.1
v 1.8 4.3 -2.1
v 2.1 4.3 -2.1
v 2.3 4.3 -2.1
v 2.4 4.3 -2.1
v 1.6 4.3 -2.2
v 1.7 4.3 -2.2
v 1.8 4.3 -2.2
v 2.2 4.3 -2.2
v 2.3 4.3 -2.2
v 1.7 4.3 -2.3
v 1.8 4.3 -2.3
v 1.9 4.3 -2.3
v 2.1 4.3 -2.3
v 2.2 4.3 -2.3
v 1.8 4.3 -2.4
v 1.9 4.3 -2.4
v 2.1 4.3 -2.4
v 1.8 4.4 -1.7
v 1.9 4.4 -1.7
v 2.1 4.4 -1.7
v 1.6 4.4 -1.9
v 1.7 4.4 -1.9
v 1.8 4.4 -1.9
v 1.9 4.4 -1.9
v 2.1 4.4 -1.9
v 2.3 4.4 -1.9
v 1.6 4.4 -2.1
v 1.7 4.4 -2.1
v 1.8 4.4 -2.1
v 1.9 4.4 -2.1
v 2.1 4.4 -2.1
v 2.3 4.4 -2.1
v 1.8 4.4 -2.3
v 1.9 4.4 -2.3
v 2.1 4.4 -2.3
v 1.8 4.5 -1.9
v 1.9 4.5 -1.9
v 2.1 4.5 -1.9
v 1.8 4.5 -2.1
v 1.9 4.5 -2.1
v 2.1 4.5 -2.1

# faces
f 3/2/1 2/2/1 1/2/1
f 4/2/1 2/2/1 3/2/1
f 8/2/1 6/2/1 5/2/1
f 9/2/1 6/2/1 8/2/1
f 11/2/1 8/2/1 7/2/1
f 12/2/1 8/2/1 11/2/1
f 13/2/1 10/2/1 9/2/1
f 14/2/1 10/2/1 13/2/1
f 15/2/1 13/2/1 12/2/1
f 16/2/1 13/2/1 15/2/1
f 20/2/1 18/2/1 17/2/1
f 21/2/1 18/2/1 20/2/1
f 24/2/1 20/2/1 19/2/1
f 25/2/1 22/2/1 21/2/1
f 28/2/1 24/2/1 23/2/1
f 29/2/1 20/2/1 24/2/1
f 29/2/1 24/2/1 28/2/1
f 30/2/1 26/2/1 25/2/1
f 30/2/1 25/2/1 21/2/1
f 31/2/1 26/2/1 30/2/1
f 33/2/1 28/2/1 27/2/1
f 34/2/1 28/2/1 33/2/1
f 37/2/1 32/2/1 31/2/1
f 38/2/1 32/2/1 37/2/1
f 39/2/1 35/2/1 34/2/1
f 40/2/1 35/2/1 39/2/1
f 41/2/1 37/2/1 36/2/1
f 42/2/1 37/2/1 41/2/1
f 43/2/1 35/2/1 40/2/1
f 44/2/1 35/2/1 43/2/1
f 45/2/1 41/2/1 36/2/1
f 46/2/1 41/2/1 45/2/1
f 47/2/1 45/2/1 44/2/1
f 48/2/1 45/2/1 47/2/1
f 53/2/1 50/2/1 49/2/1
f 54/2/1 50/2/1 53/2/1
f 55/2/1 52/2/1 51/2/1
f 56/2/1 52/2/1 55/2/1
f 61/2/1 58/2/1 57/2/1
f 62/2/1 58/2/1 61/2/1
f 63/2/1 60/2/1 59/2/1
f 64/2/1 60/2/1 63/2/1
f 68/2/1 66/2/1 65/2/1
f 69/2/1 66/2/1 68/2/1
f 72/2/1 68/2/1 67/2/1
f 73/2/1 68/2/1 72/2/1
f 74/2/1 68/2/1 73/2/1
f 75/2/1 70/2/1 69/2/1
f 76/2/1 70/2/1 75/2/1
f 77/2/1 70/2/1 76/2/1
f 79/2/1 72/2/1 71/2/1
f 80/2/1 78/2/1 77/2/1
f 82/2/1 79/2/1 71/2/1
f 83/2/1 79/2/1 82/2/1
f 84/2/1 78/2/1 80/2/1
f 85/2/1 78/2/1 84/2/1
f 87/2/1 82/2/1 81/2/1
f 88/2/1 82/2/1 87/2/1
f 91/2/1 86/2/1 85/2/1
f 92/2/1 86/2/1 91/2/1
f 93/2/1 89/2/1 88/2/1
f 94/2/1 91/2/1 90/2/1
f 95/2/1 93/2/1 88/2/1
f 96/2/1 93/2/1 95/2/1
f 101/2/1 91/2/1 94/2/1
f 102/2/1 91/2/1 101/2/1
f 103/2/1 97/2/1 96/2/1
f 103/2/1 98/2/1 97/2/1
f 104/2/1 98/2/1 103/2/1
f 105/2/1 100/2/1 99/2/1
f 105/2/1 101/2/1 100/2/1
f 106/2/1 101/2/1 105/2/1
f 107/2/1 105/2/1 104/2/1
f 108/2/1 105/2/1 107/2/1
f 109/1/2 110/1/2 112/1/2
f 112/1/2 110/1/2 113/1/2
f 111/1/2 112/1/2 116/1/2
f 116/1/2 112/1/2 117/1/2
f 113/1/2 114/1/2 118/1/2
f 118/1/2 114/1/2 119/1/2
f 115/1/2 116/1/2 122/1/2
f 122/1/2 116/1/2 123/1/2
f 119/1/2 120/1/2 124/1/2
f 124/1/2 120/1/2 125/1/2
f 121/1/2 122/1/2 127/1/2
f 127/1/2 122/1/2 128/1/2
f 125/1/2 126/1/2 131/1/2
f 131/1/2 126/1/2 132/1/2
f 128/1/2 129/1/2 133/1/2
f 133/1/2 129/1/2 134/1/2
f 130/1/2 131/1/2 137/1/2
f 137/1/2 131/1/2 138/1/2
f 134/1/2 135/1/2 139/1/2
f 139/1/2 135/1/2 140/1/2
f 136/1/2 137/1/2 141/1/2
f 141/1/2 137/1/2 142/1/2
f 140/1/2 141/1/2 143/1/2
f 143/1/2 141/1/2 144/1/2
f 145/1/2 146/1/2 149/1/2
f 149/1/2 146/1/2 150/1/2
f 147/1/2 148/1/2 151/1/2
f 151/1/2 148/1/2 152/1/2
f 153/1/2 154/1/2 157/1/2
f 157/1/2 154/1/2 158/1/2
f 155/1/2 156/1/2 159/1/2
f 159/1/2 156/1/2 160/1/2
f 161/1/2 162/1/2 164/1/2
f 164/1/2 162/1/2 165/1/2
f 163/1/2 164/1/2 168/1/2
f 165/1/2 166/1/2 169/1/2
f 167/1/2 168/1/2 172/1/2
f 168/1/2 164/1/2 173/1/2
f 172/1/2 168/1/2 173/1/2
f 169/1/2 170/1/2 174/1/2
f 165/1/2 169/1/2 174/1/2
f 174/1/2 170/1/2 175/1/2
f 171/1/2 172/1/2 177/1/2
f 177/1/2 172/1/2 178/1/2
f 175/1/2 176/1/2 181/1/2
f 181/1/2 176/1/2 182/1/2
f 178/1/2 179/1/2 183/1/2
f 183/1/2 179/1/2 184/1/2
f 180/1/2 181/1/2 185/1/2
f 185/1/2 181/1/2 186/1/2
f 184/1/2 179/1/2 187/1/2
f 187/1/2 179/1/2 188/1/2
f 180/1/2 185/1/2 189/1/2
f 189/1/2 185/1/2 190/1/2
f 188/1/2 189/1/2 191/1/2
f 191/1/2 189/1/2 192/1/2
f 193/1/2 194/1/2 196/1/2
f 196/1/2 194/1/2 197/1/2
f 195/1/2 196/1/2 199/1/2
f 199/1/2 196/1/2 200/1/2
f 197/1/2 198/1/2 201/1/2
f 201/1/2 198/1/2 202/1/2
f 200/1/2 201/1/2 203/1/2
f 203/1/2 201/1/2 204/1/2
f 205/1/2 206/1/2 207/1/2
f 207/1/2 206/1/2 208/1/2
f 211/2/3 210/2/3 209/2/3
f 212/2/3 210/2/3 211/2/3
f 213/1/3 212/1/3 211/1/3
f 214/1/3 212/1/3 213/1/3
f 217/2/3 216/2/3 215/2/3
f 218/2/3 216/2/3 217/2/3
f 220/1/3 218/1/3 217/1/3
f 221/1/3 218/1/3 220/1/3
f 223/2/3 220/2/3 219/2/3
f 224/2/3 220/2/3 223/2/3
f 225/2/3 222/2/3 221/2/3
f 226/2/3 222/2/3 225/2/3
f 227/1/3 224/1/3 223/1/3
f 228/1/3 224/1/3 227/1/3
f 229/1/3 226/1/3 225/1/3
f 230/1/3 226/1/3 229/1/3
f 231/1/3 229/1/3 228/1/3
f 232/1/3 229/1/3 231/1/3
f 236/2/3 234/2/3 233/2/3
f 237/2/3 234/2/3 236/2/3
f 240/2/3 236/2/3 235/2/3
f 241/2/3 236/2/3 240/2/3
f 242/2/3 238/2/3 237/2/3
f 243/2/3 238/2/3 242/2/3
f 246/2/3 240/2/3 239/2/3
f 247/1/3 241/1/3 240/1/3
f 247/2/3 240/2/3 246/2/3
f 248/1/3 241/1/3 247/1/3
f 249/1/3 243/1/3 242/1/3
f 250/2/3 244/2/3 243/2/3
f 250/1/3 243/1/3 249/1/3
f 251/2/3 244/2/3 250/2/3
f 253/2/3 246/2/3 245/2/3
f 254/2/3 246/2/3 253/2/3
f 255/2/3 252/2/3 251/2/3
f 256/2/3 252/2/3 255/2/3
f 257/1/3 254/1/3 253/1/3
f 258/1/3 254/1/3 257/1/3
f 261/1/3 256/1/3 255/1/3
f 262/1/3 256/1/3 261/1/3
f 263/1/3 259/1/3 258/1/3
f 264/1/3 259/1/3 263/1/3
f 265/1/3 261/1/3 260/1/3
f 266/1/3 261/1/3 265/1/3
f 267/1/3 259/1/3 264/1/3
f 268/1/3 259/1/3 267/1/3
f 269/1/3 265/1/3 260/1/3
f 270/1/3 265/1/3 269/1/3
f 271/1/3 269/1/3 268/1/3
f 272/1/3 269/1/3 271/1/3
f 277/2/3 274/2/3 273/2/3
f 278/2/3 274/2/3 277/2/3
f 279/2/3 276/2/3 275/2/3
f 280/2/3 276/2/3 279/2/3
f 285/1/3 282/1/3 281/1/3
f 286/1/3 282/1/3 285/1/3
f 287/1/3 284/1/3 283/1/3
f 288/1/3 284/1/3 287/1/3
f 292/2/3 290/2/3 289/2/3
f 293/2/3 290/2/3 292/2/3
f 296/2/3 292/2/3 291/2/3
f 297/2/3 292/2/3 296/2/3
f 298/2/3 294/2/3 293/2/3
f 299/2/3 294/2/3 298/2/3
f 301/2/3 296/2/3 295/2/3
f 302/2/3 296/2/3 301/2/3
f 303/2/3 300/2/3 299/2/3
f 304/2/3 300/2/3 303/2/3
f 306/1/3 302/1/3 301/1/3
f 307/1/3 302/1/3 306/1/3
f 308/1/3 304/1/3 303/1/3
f 309/1/3 304/1/3 308/1/3
f 311/2/3 306/2/3 305/2/3
f 312/2/3 306/2/3 311/2/3
f 313/2/3 310/2/3 309/2/3
f 314/2/3 310/2/3 313/2/3
f 315/1/3 312/1/3 311/1/3
f 316/1/3 312/1/3 315/1/3
f 319/1/3 314/1/3 313/1/3
f 320/1/3 314/1/3 319/1/3
f 321/1/3 317/1/3 316/1/3
f 322/1/3 317/1/3 321/1/3
f 325/1/3 319/1/3 318/1/3
f 326/1/3 319/1/3 325/1/3
f 327/1/3 323/1/3 322/1/3
f 328/1/3 323/1/3 327/1/3
f 329/1/3 325/1/3 324/1/3
f 330/1/3 325/1/3 329/1/3
f 331/1/3 329/1/3 328/1/3
f 332/1/3 329/1/3 331/1/3
f 333/2/4 334/2/4 336/2/4
f 336/2/4 334/2/4 337/2/4
f 335/2/4 336/2/4 340/2/4
f 340/2/4 336/2/4 341/2/4
f 337/2/4 338/2/4 342/2/4
f 342/2/4 338/2/4 343/2/4
f 339/2/4 340/2/4 345/2/4
f 345/2/4 340/2/4 346/2/4
f 343/2/4 344/2/4 347/2/4
f 347/2/4 344/2/4 348/2/4
f 345/1/4 346/1/4 350/1/4
f 350/1/4 346/1/4 351/1/4
f 347/1/4 348/1/4 352/1/4
f 352/1/4 348/1/4 353/1/4
f 349/2/4 350/2/4 355/2/4
f 355/2/4 350/2/4 356/2/4
f 353/2/4 354/2/4 357/2/4
f 357/2/4 354/2/4 358/2/4
f 355/1/4 356/1/4 359/1/4
f 359/1/4 356/1/4 360/1/4
f 357/1/4 358/1/4 363/1/4
f 363/1/4 358/1/4 364/1/4
f 360/1/4 361/1/4 365/1/4
f 365/1/4 361/1/4 366/1/4
f 362/1/4 363/1/4 369/1/4
f 369/1/4 363/1/4 370/1/4
f 366/1/4 367/1/4 371/1/4
f 371/1/4 367/1/4 372/1/4
f 368/1/4 369/1/4 373/1/4
f 373/1/4 369/1/4 374/1/4
f 372/1/4 373/1/4 375/1/4
f 375/1/4 373/1/4 376/1/4
f 377/2/4 378/2/4 381/2/4
f 381/2/4 378/2/4 382/2/4
f 379/2/4 380/2/4 383/2/4
f 383/2/4 380/2/4 384/2/4
f 385/1/4 386/1/4 389/1/4
f 389/1/4 386/1/4 390/1/4
f 387/1/4 388/1/4 391/1/4
f 391/1/4 388/1/4 392/1/4
f 393/2/4 394/2/4 396/2/4
f 396/2/4 394/2/4 397/2/4
f 395/2/4 396/2/4 400/2/4
f 400/2/4 396/2/4 401/2/4
f 397/2/4 398/2/4 402/2/4
f 402/2/4 398/2/4 403/2/4
f 399/2/4 400/2/4 406/2/4
f 400/1/4 401/1/4 407/1/4
f 406/2/4 400/2/4 407/2/4
f 407/1/4 401/1/4 408/1/4
f 402/1/4 403/1/4 409/1/4
f 403/2/4 404/2/4 410/2/4
f 409/1/4 403/1/4 410/1/4
f 410/2/4 404/2/4 411/2/4
f 405/2/4 406/2/4 413/2/4
f 413/2/4 406/2/4 414/2/4
f 411/2/4 412/2/4 415/2/4
f 415/2/4 412/2/4 416/2/4
f 413/1/4 414/1/4 417/1/4
f 417/1/4 414/1/4 418/1/4
f 415/1/4 416/1/4 421/1/4
f 421/1/4 416/1/4 422/1/4
f 418/1/4 419/1/4 423/1/4
f 423/1/4 419/1/4 424/1/4
f 420/1/4 421/1/4 425/1/4
f 425/1/4 421/1/4 426/1/4
f 424/1/4 419/1/4 427/1/4
f 427/1/4 419/1/4 428/1/4
f 420/1/4 425/1/4 429/1/4
f 429/1/4 425/1/4 430/1/4
f 428/1/4 429/1/4 431/1/4
f 431/1/4 429/1/4 432/1/4
f 433/2/4 434/2/4 435/2/4
f 435/2/4 434/2/4 436/2/4
f 435/1/4 436/1/4 438/1/4
f 438/1/4 436/1/4 439/1/4
f 437/2/4 438/2/4 441/2/4
f 441/2/4 438/2/4 442/2/4
f 439/2/4 440/2/4 443/2/4
f 443/2/4 440/2/4 444/2/4
f 441/1/4 442/1/4 445/1/4
f 445/1/4 442/1/4 446/1/4
f 443/1/4 444/1/4 447/1/4
f 447/1/4 444/1/4 448/1/4
f 446/1/4 447/1/4 449/1/4
f 449/1/4 447/1/4 450/1/4
f 451/2/4 452/2/4 453/2/4
f 453/2/4 452/2/4 454/2/4
f 453/1/4 454/1/4 455/1/4
f 455/1/4 454/1/4 456/1/4
f 460/2/5 458/2/5 457/2/5
f 461/1/5 459/1/5 458/1/5
f 461/2/5 458/2/5 460/2/5
f 462/1/5 459/1/5 461/1/5
f 468/2/5 464/2/5 463/2/5
f 469/1/5 465/1/5 464/1/5
f 469/2/5 464/2/5 468/2/5
f 470/1/5 465/1/5 469/1/5
f 472/2/5 467/2/5 466/2/5
f 473/1/5 468/1/5 467/1/5
f 473/2/5 467/2/5 472/2/5
f 474/1/5 468/1/5 473/1/5
f 476/1/5 471/1/5 470/1/5
f 477/1/5 471/1/5 476/1/5
f 478/2/5 475/2/5 474/2/5
f 479/1/5 476/1/5 475/1/5
f 479/2/5 475/2/5 478/2/5
f 480/1/5 476/1/5 479/1/5
f 485/2/5 482/2/5 481/2/5
f 486/1/5 483/1/5 482/1/5
f 486/2/5 482/2/5 485/2/5
f 487/1/5 483/1/5 486/1/5
f 490/2/5 485/2/5 484/2/5
f 491/2/5 485/2/5 490/2/5
f 492/1/5 488/1/5 487/1/5
f 495/2/5 490/2/5 489/2/5
f 496/1/5 491/1/5 490/1/5
f 496/2/5 490/2/5 495/2/5
f 497/1/5 491/1/5 496/1/5
f 498/1/5 493/1/5 492/1/5
f 498/1/5 492/1/5 487/1/5
f 499/1/5 493/1/5 498/1/5
f 501/2/5 495/2/5 494/2/5
f 502/2/5 495/2/5 501/2/5
f 506/1/5 500/1/5 499/1/5
f 507/1/5 500/1/5 506/1/5
f 508/2/5 503/2/5 502/2/5
f 509/1/5 504/1/5 503/1/5
f 509/2/5 503/2/5 508/2/5
f 510/1/5 504/1/5 509/1/5
f 511/1/5 506/1/5 505/1/5
f 512/1/5 506/1/5 511/1/5
f 513/2/5 510/2/5 509/2/5
f 514/2/5 510/2/5 513/2/5
f 516/1/5 511/1/5 505/1/5
f 517/1/5 511/1/5 516/1/5
f 518/2/5 515/2/5 514/2/5
f 519/1/5 516/1/5 515/1/5
f 519/2/5 515/2/5 518/2/5
f 520/1/5 516/1/5 519/1/5
f 525/2/5 522/2/5 521/2/5
f 526/2/5 522/2/5 525/2/5
f 527/1/5 524/1/5 523/1/5
f 528/1/5 524/1/5 527/1/5
f 533/2/5 530/2/5 529/2/5
f 534/2/5 530/2/5 533/2/5
f 535/1/5 532/1/5 531/1/5
f 536/1/5 532/1/5 535/1/5
f 542/2/5 538/2/5 537/2/5
f 543/1/5 539/1/5 538/1/5
f 543/2/5 538/2/5 542/2/5
f 544/1/5 539/1/5 543/1/5
f 547/2/5 541/2/5 540/2/5
f 548/1/5 542/1/5 541/1/5
f 548/2/5 541/2/5 547/2/5
f 549/1/5 542/1/5 548/1/5
f 550/1/5 545/1/5 544/1/5
f 551/1/5 545/1/5 550/1/5
f 554/2/5 547/2/5 546/2/5
f 555/2/5 547/2/5 554/2/5
f 556/1/5 552/1/5 551/1/5
f 557/1/5 552/1/5 556/1/5
f 559/2/5 554/2/5 553/2/5
f 560/2/5 554/2/5 559/2/5
f 563/1/5 558/1/5 557/1/5
f 564/1/5 558/1/5 563/1/5
f 565/2/5 561/2/5 560/2/5
f 566/2/5 561/2/5 565/2/5
f 570/1/5 563/1/5 562/1/5
f 571/1/5 563/1/5 570/1/5
f 572/2/5 567/2/5 566/2/5
f 573/1/5 568/1/5 567/1/5
f 573/2/5 567/2/5 572/2/5
f 574/1/5 568/1/5 573/1/5
f 576/1/5 570/1/5 569/1/5
f 577/1/5 570/1/5 576/1/5
f 578/2/5 575/2/5 574/2/5
f 579/1/5 576/1/5 575/1/5
f 579/2/5 575/2/5 578/2/5
f 580/1/5 576/1/5 579/1/5
f 581/2/6 582/2/6 586/2/6
f 582/1/6 583/1/6 587/1/6
f 586/2/6 582/2/6 587/2/6
f 587/1/6 583/1/6 588/1/6
f 584/2/6 585/2/6 591/2/6
f 585/1/6 586/1/6 592/1/6
f 591/2/6 585/2/6 592/2/6
f 592/1/6 586/1/6 593/1/6
f 588/1/6 589/1/6 594/1/6
f 594/1/6 589/1/6 595/1/6
f 590/2/6 591/2/6 598/2/6
f 598/2/6 591/2/6 599/2/6
f 595/1/6 596/1/6 600/1/6
f 600/1/6 596/1/6 601/1/6
f 597/2/6 598/2/6 603/2/6
f 603/2/6 598/2/6 604/2/6
f 601/1/6 602/1/6 607/1/6
f 607/1/6 602/1/6 608/1/6
f 604/2/6 605/2/6 609/2/6
f 609/2/6 605/2/6 610/2/6
f 606/1/6 607/1/6 614/1/6
f 614/1/6 607/1/6 615/1/6
f 610/2/6 611/2/6 616/2/6
f 611/1/6 612/1/6 617/1/6
f 616/2/6 611/2/6 617/2/6
f 617/1/6 612/1/6 618/1/6
f 613/1/6 614/1/6 620/1/6
f 620/1/6 614/1/6 621/1/6
f 618/2/6 619/2/6 622/2/6
f 619/1/6 620/1/6 623/1/6
f 622/2/6 619/2/6 623/2/6
f 623/1/6 620/1/6 624/1/6
f 625/2/6 626/2/6 629/2/6
f 629/2/6 626/2/6 630/2/6
f 627/1/6 628/1/6 631/1/6
f 631/1/6 628/1/6 632/1/6
f 633/2/6 634/2/6 637/2/6
f 637/2/6 634/2/6 638/2/6
f 635/1/6 636/1/6 639/1/6
f 639/1/6 636/1/6 640/1/6
f 641/2/6 642/2/6 645/2/6
f 642/1/6 643/1/6 646/1/6
f 645/2/6 642/2/6 646/2/6
f 646/1/6 643/1/6 647/1/6
f 644/2/6 645/2/6 650/2/6
f 650/2/6 645/2/6 651/2/6
f 647/1/6 648/1/6 652/1/6
f 649/2/6 650/2/6 655/2/6
f 650/1/6 651/1/6 656/1/6
f 655/2/6 650/2/6 656/2/6
f 656/1/6 651/1/6 657/1/6
f 652/1/6 653/1/6 658/1/6
f 647/1/6 652/1/6 658/1/6
f 658/1/6 653/1/6 659/1/6
f 654/2/6 655/2/6 661/2/6
f 661/2/6 655/2/6 662/2/6
f 659/1/6 660/1/6 666/1/6
f 666/1/6 660/1/6 667/1/6
f 662/2/6 663/2/6 668/2/6
f 663/1/6 664/1/6 669/1/6
f 668/2/6 663/2/6 669/2/6
f 669/1/6 664/1/6 670/1/6
f 665/1/6 666/1/6 671/1/6
f 671/1/6 666/1/6 672/1/6
f 669/2/6 670/2/6 673/2/6
f 673/2/6 670/2/6 674/2/6
f 665/1/6 671/1/6 676/1/6
f 676/1/6 671/1/6 677/1/6
f 674/2/6 675/2/6 678/2/6
f 675/1/6 676/1/6 679/1/6
f 678/2/6 675/2/6 679/2/6
f 679/1/6 676/1/6 680/1/6
f 681/2/6 682/2/6 686/2/6
f 682/1/6 683/1/6 687/1/6
f 686/2/6 682/2/6 687/2/6
f 687/1/6 683/1/6 688/1/6
f 684/2/6 685/2/6 690/2/6
f 685/1/6 686/1/6 691/1/6
f 690/2/6 685/2/6 691/2/6
f 691/1/6 686/1/6 692/1/6
f 688/1/6 689/1/6 694/1/6
f 694/1/6 689/1/6 695/1/6
f 692/2/6 693/2/6 696/2/6
f 693/1/6 694/1/6 697/1/6
f 696/2/6 693/2/6 697/2/6
f 697/1/6 694/1/6 698/1/6
f 699/2/6 700/2/6 702/2/6
f 700/1/6 701/1/6 703/1/6
f 702/2/6 700/2/6 703/2/6
f 703/1/6 701/1/6 704/1/6
