# MagicaVoxel @ Ephtracy

# group
o 

# material
mtllib Zombie.mtl
usemtl palette

# normals
vn -1 0 0
vn 1 0 0
vn 0 0 1
vn 0 0 -1
vn 0 -1 0
vn 0 1 0

# texcoords
vt 0.0332031 0.5
vt 0.310547 0.5
vt 0.341797 0.5
vt 0.478516 0.5
vt 0.787109 0.5
vt 0.791016 0.5
vt 0.794922 0.5
vt 0.798828 0.5
vt 0.802734 0.5
vt 0.806641 0.5
vt 0.810547 0.5
vt 0.955078 0.5

# verts
v 0.6 1.3 -0.7
v 0.6 1.3 -0.8
v 0.6 1.3 -0.9
v 0.6 1.4 -0.7
v 0.6 1.4 -0.8
v 0.6 1.4 -0.9
v 0.6 1.4 -1
v 0.6 1.5 -0.9
v 0.6 1.5 -1
v 0.6 1.5 -1.1
v 0.6 1.6 -1
v 0.6 1.6 -1.1
v 0.6 1.7 -0.9
v 0.6 1.7 -1.1
v 0.6 1.8 -0.9
v 0.6 1.8 -1.1
v 0.7 1.1 -0.9
v 0.7 1.1 -1.2
v 0.7 1.2 -0.8
v 0.7 1.2 -0.9
v 0.7 1.2 -1.2
v 0.7 1.2 -1.3
v 0.7 1.3 -0.8
v 0.7 1.3 -0.9
v 0.7 1.3 -1.3
v 0.7 1.4 -0.8
v 0.7 1.4 -0.9
v 0.7 1.4 -1
v 0.7 1.5 -0.9
v 0.7 1.5 -1
v 0.7 1.5 -1.1
v 0.7 1.6 -0.8
v 0.7 1.6 -0.9
v 0.7 1.6 -1
v 0.7 1.6 -1.1
v 0.7 1.6 -1.3
v 0.7 1.7 -0.9
v 0.7 1.7 -1.1
v 0.7 1.8 -0.9
v 0.7 1.8 -1.1
v 0.7 2.1 -0.9
v 0.7 2.1 -1.3
v 0.8 1 -1
v 0.8 1 -1.1
v 0.8 1.1 -1
v 0.8 1.1 -1.1
v 0.8 1.6 -1.3
v 0.8 1.6 -1.4
v 0.8 1.9 -1.3
v 0.8 1.9 -1.4
v 0.8 2.1 -1
v 0.8 2.1 -1.1
v 0.8 2.2 -1
v 0.8 2.2 -1.1
v 0.9 2.1 -1.2
v 0.9 2.1 -1.3
v 0.9 2.2 -1.2
v 0.9 2.2 -1.3
v 1.1 1 -1
v 1.1 1 -1.1
v 1.1 1.1 -0.9
v 1.1 1.1 -1
v 1.1 1.1 -1.1
v 1.1 1.1 -1.2
v 1.1 1.2 -0.9
v 1.1 1.2 -1
v 1.1 1.2 -1.1
v 1.1 1.2 -1.2
v 1.1 2.1 -1
v 1.1 2.1 -1.1
v 1.1 2.2 -1
v 1.1 2.2 -1.1
v 0.7 1.3 -0.7
v 0.7 1.3 -0.8
v 0.7 1.4 -0.7
v 0.7 1.4 -0.8
v 0.9 1 -1
v 0.9 1 -1.1
v 0.9 1.1 -0.9
v 0.9 1.1 -1
v 0.9 1.1 -1.1
v 0.9 1.1 -1.2
v 0.9 1.2 -0.9
v 0.9 1.2 -1.2
v 0.9 2.1 -1
v 0.9 2.1 -1.1
v 0.9 2.2 -1
v 0.9 2.2 -1.1
v 1 2.1 -1.2
v 1 2.1 -1.3
v 1 2.2 -1.2
v 1 2.2 -1.3
v 1.2 1 -1
v 1.2 1 -1.1
v 1.2 1.1 -1
v 1.2 1.1 -1.1
v 1.2 1.6 -0.9
v 1.2 1.6 -1.1
v 1.2 1.6 -1.3
v 1.2 1.6 -1.4
v 1.2 1.7 -0.9
v 1.2 1.7 -1.1
v 1.2 1.9 -1.2
v 1.2 1.9 -1.3
v 1.2 1.9 -1.4
v 1.2 2.1 -1
v 1.2 2.1 -1.1
v 1.2 2.1 -1.2
v 1.2 2.1 -1.3
v 1.2 2.2 -1
v 1.2 2.2 -1.1
v 1.3 1.1 -0.9
v 1.3 1.1 -1.2
v 1.3 1.2 -0.8
v 1.3 1.2 -0.9
v 1.3 1.2 -1
v 1.3 1.2 -1.1
v 1.3 1.2 -1.2
v 1.3 1.2 -1.3
v 1.3 1.3 -0.8
v 1.3 1.3 -1
v 1.3 1.3 -1.1
v 1.3 1.3 -1.3
v 1.3 1.6 -0.8
v 1.3 1.6 -1
v 1.3 1.6 -1.1
v 1.3 1.6 -1.3
v 1.3 1.7 -0.9
v 1.3 1.7 -1
v 1.3 1.7 -1.1
v 1.3 1.8 -1
v 1.3 1.8 -1.1
v 1.3 1.9 -1.2
v 1.3 1.9 -1.3
v 1.3 2.1 -0.9
v 1.3 2.1 -1.2
v 1.4 1.2 -1
v 1.4 1.2 -1.1
v 1.4 1.3 -1
v 1.4 1.3 -1.1
v 1.4 1.6 -1
v 1.4 1.6 -1.1
v 1.4 1.7 -1
v 1.4 1.7 -1.1
v 1.4 1.8 -1
v 1.4 1.8 -1.1
v 0.6 1.3 -0.7
v 0.6 1.4 -0.7
v 0.7 1.3 -0.7
v 0.7 1.4 -0.7
v 0.7 1.2 -0.8
v 0.7 1.3 -0.8
v 0.7 1.4 -0.8
v 0.7 1.6 -0.8
v 0.9 1.3 -0.8
v 0.9 1.4 -0.8
v 0.9 1.5 -0.8
v 0.9 1.6 -0.8
v 1 1.3 -0.8
v 1 1.4 -0.8
v 1 1.5 -0.8
v 1 1.6 -0.8
v 1.1 1.3 -0.8
v 1.1 1.4 -0.8
v 1.1 1.5 -0.8
v 1.1 1.6 -0.8
v 1.3 1.2 -0.8
v 1.3 1.3 -0.8
v 1.3 1.6 -0.8
v 0.6 1.4 -0.9
v 0.6 1.5 -0.9
v 0.6 1.7 -0.9
v 0.6 1.8 -0.9
v 0.7 1.1 -0.9
v 0.7 1.2 -0.9
v 0.7 1.4 -0.9
v 0.7 1.5 -0.9
v 0.7 1.6 -0.9
v 0.7 1.7 -0.9
v 0.7 1.8 -0.9
v 0.7 2.1 -0.9
v 0.8 1.9 -0.9
v 0.8 2 -0.9
v 0.9 1.1 -0.9
v 0.9 1.2 -0.9
v 0.9 1.6 -0.9
v 0.9 1.7 -0.9
v 0.9 1.8 -0.9
v 0.9 1.9 -0.9
v 0.9 2 -0.9
v 1 1.6 -0.9
v 1.1 1.1 -0.9
v 1.1 1.2 -0.9
v 1.1 1.6 -0.9
v 1.1 1.7 -0.9
v 1.1 1.8 -0.9
v 1.1 1.9 -0.9
v 1.1 2 -0.9
v 1.2 1.6 -0.9
v 1.2 1.7 -0.9
v 1.2 1.9 -0.9
v 1.2 2 -0.9
v 1.3 1.1 -0.9
v 1.3 1.2 -0.9
v 1.3 1.7 -0.9
v 1.3 2.1 -0.9
v 0.6 1.5 -1
v 0.6 1.6 -1
v 0.7 1.5 -1
v 0.7 1.6 -1
v 0.8 1 -1
v 0.8 1.1 -1
v 0.8 2.1 -1
v 0.8 2.2 -1
v 0.9 1 -1
v 0.9 1.1 -1
v 0.9 2.1 -1
v 0.9 2.2 -1
v 1.1 1 -1
v 1.1 1.1 -1
v 1.1 2.1 -1
v 1.1 2.2 -1
v 1.2 1 -1
v 1.2 1.1 -1
v 1.2 2.1 -1
v 1.2 2.2 -1
v 1.3 1.2 -1
v 1.3 1.3 -1
v 1.3 1.6 -1
v 1.3 1.7 -1
v 1.3 1.8 -1
v 1.4 1.2 -1
v 1.4 1.3 -1
v 1.4 1.6 -1
v 1.4 1.7 -1
v 1.4 1.8 -1
v 1.2 1.6 -1.1
v 1.2 1.7 -1.1
v 1.3 1.6 -1.1
v 1.3 1.7 -1.1
v 0.9 2.1 -1.2
v 0.9 2.2 -1.2
v 1 2.1 -1.2
v 1 2.2 -1.2
v 0.6 1.3 -0.9
v 0.6 1.4 -0.9
v 0.7 1.3 -0.9
v 0.7 1.4 -0.9
v 0.6 1.4 -1
v 0.6 1.5 -1
v 0.7 1.4 -1
v 0.7 1.5 -1
v 0.6 1.5 -1.1
v 0.6 1.6 -1.1
v 0.6 1.7 -1.1
v 0.6 1.8 -1.1
v 0.7 1.5 -1.1
v 0.7 1.6 -1.1
v 0.7 1.7 -1.1
v 0.7 1.8 -1.1
v 0.8 1 -1.1
v 0.8 1.1 -1.1
v 0.8 2.1 -1.1
v 0.8 2.2 -1.1
v 0.9 1 -1.1
v 0.9 1.1 -1.1
v 0.9 2.1 -1.1
v 0.9 2.2 -1.1
v 1.1 1 -1.1
v 1.1 1.1 -1.1
v 1.1 2.1 -1.1
v 1.1 2.2 -1.1
v 1.2 1 -1.1
v 1.2 1.1 -1.1
v 1.2 2.1 -1.1
v 1.2 2.2 -1.1
v 1.3 1.2 -1.1
v 1.3 1.3 -1.1
v 1.3 1.6 -1.1
v 1.3 1.7 -1.1
v 1.3 1.8 -1.1
v 1.4 1.2 -1.1
v 1.4 1.3 -1.1
v 1.4 1.6 -1.1
v 1.4 1.7 -1.1
v 1.4 1.8 -1.1
v 0.7 1.1 -1.2
v 0.7 1.2 -1.2
v 0.9 1.1 -1.2
v 0.9 1.2 -1.2
v 1.1 1.1 -1.2
v 1.1 1.2 -1.2
v 1.2 1.9 -1.2
v 1.2 2.1 -1.2
v 1.3 1.1 -1.2
v 1.3 1.2 -1.2
v 1.3 1.9 -1.2
v 1.3 2.1 -1.2
v 0.7 1.2 -1.3
v 0.7 1.3 -1.3
v 0.7 1.6 -1.3
v 0.7 2.1 -1.3
v 0.8 1.6 -1.3
v 0.8 1.9 -1.3
v 0.9 2.1 -1.3
v 0.9 2.2 -1.3
v 1 2.1 -1.3
v 1 2.2 -1.3
v 1.2 1.6 -1.3
v 1.2 1.9 -1.3
v 1.2 2.1 -1.3
v 1.3 1.2 -1.3
v 1.3 1.3 -1.3
v 1.3 1.6 -1.3
v 1.3 1.9 -1.3
v 0.8 1.6 -1.4
v 0.8 1.9 -1.4
v 1.2 1.6 -1.4
v 1.2 1.9 -1.4
v 0.8 1 -1
v 0.9 1 -1
v 1.1 1 -1
v 1.2 1 -1
v 0.8 1 -1.1
v 0.9 1 -1.1
v 1.1 1 -1.1
v 1.2 1 -1.1
v 0.7 1.1 -0.9
v 0.9 1.1 -0.9
v 1.1 1.1 -0.9
v 1.3 1.1 -0.9
v 0.8 1.1 -1
v 0.9 1.1 -1
v 1.1 1.1 -1
v 1.2 1.1 -1
v 0.8 1.1 -1.1
v 0.9 1.1 -1.1
v 1.1 1.1 -1.1
v 1.2 1.1 -1.1
v 0.7 1.1 -1.2
v 0.9 1.1 -1.2
v 1.1 1.1 -1.2
v 1.3 1.1 -1.2
v 0.7 1.2 -0.8
v 1.3 1.2 -0.8
v 0.7 1.2 -0.9
v 0.9 1.2 -0.9
v 1 1.2 -0.9
v 1.1 1.2 -0.9
v 1.3 1.2 -0.9
v 1 1.2 -1
v 1.1 1.2 -1
v 1.3 1.2 -1
v 1.4 1.2 -1
v 1.1 1.2 -1.1
v 1.3 1.2 -1.1
v 1.4 1.2 -1.1
v 0.7 1.2 -1.2
v 0.9 1.2 -1.2
v 1.1 1.2 -1.2
v 1.3 1.2 -1.2
v 0.7 1.2 -1.3
v 1.3 1.2 -1.3
v 0.6 1.3 -0.7
v 0.7 1.3 -0.7
v 0.6 1.3 -0.8
v 0.7 1.3 -0.8
v 0.6 1.3 -0.9
v 0.7 1.3 -0.9
v 0.6 1.4 -0.9
v 0.7 1.4 -0.9
v 0.6 1.4 -1
v 0.7 1.4 -1
v 0.6 1.5 -1
v 0.7 1.5 -1
v 0.6 1.5 -1.1
v 0.7 1.5 -1.1
v 0.8 1.6 -1.3
v 1.2 1.6 -1.3
v 0.8 1.6 -1.4
v 1.2 1.6 -1.4
v 0.6 1.7 -0.9
v 0.7 1.7 -0.9
v 1.2 1.7 -0.9
v 1.3 1.7 -0.9
v 1.3 1.7 -1
v 1.4 1.7 -1
v 0.6 1.7 -1.1
v 0.7 1.7 -1.1
v 1.2 1.7 -1.1
v 1.3 1.7 -1.1
v 1.4 1.7 -1.1
v 0.6 1.4 -0.7
v 0.7 1.4 -0.7
v 0.6 1.4 -0.8
v 0.7 1.4 -0.8
v 0.6 1.4 -0.9
v 0.7 1.4 -0.9
v 0.6 1.5 -0.9
v 0.7 1.5 -0.9
v 0.6 1.5 -1
v 0.7 1.5 -1
v 0.7 1.6 -0.8
v 0.9 1.6 -0.8
v 1 1.6 -0.8
v 1.1 1.6 -0.8
v 1.3 1.6 -0.8
v 0.7 1.6 -0.9
v 0.9 1.6 -0.9
v 1 1.6 -0.9
v 1.1 1.6 -0.9
v 1.2 1.6 -0.9
v 0.6 1.6 -1
v 0.7 1.6 -1
v 1.3 1.6 -1
v 1.4 1.6 -1
v 0.6 1.6 -1.1
v 0.7 1.6 -1.1
v 1.2 1.6 -1.1
v 1.3 1.6 -1.1
v 1.4 1.6 -1.1
v 0.6 1.8 -0.9
v 0.7 1.8 -0.9
v 1.3 1.8 -1
v 1.4 1.8 -1
v 0.6 1.8 -1.1
v 0.7 1.8 -1.1
v 1.3 1.8 -1.1
v 1.4 1.8 -1.1
v 1.2 1.9 -1.2
v 1.3 1.9 -1.2
v 0.8 1.9 -1.3
v 1.2 1.9 -1.3
v 1.3 1.9 -1.3
v 0.8 1.9 -1.4
v 1.2 1.9 -1.4
v 0.7 2.1 -0.9
v 1.3 2.1 -0.9
v 0.8 2.1 -1
v 0.9 2.1 -1
v 1.1 2.1 -1
v 1.2 2.1 -1
v 0.8 2.1 -1.1
v 0.9 2.1 -1.1
v 1.1 2.1 -1.1
v 1.2 2.1 -1.1
v 0.9 2.1 -1.2
v 1 2.1 -1.2
v 1.2 2.1 -1.2
v 1.3 2.1 -1.2
v 0.7 2.1 -1.3
v 0.9 2.1 -1.3
v 1 2.1 -1.3
v 1.2 2.1 -1.3
v 0.8 2.2 -1
v 0.9 2.2 -1
v 1.1 2.2 -1
v 1.2 2.2 -1
v 0.8 2.2 -1.1
v 0.9 2.2 -1.1
v 1.1 2.2 -1.1
v 1.2 2.2 -1.1
v 0.9 2.2 -1.2
v 1 2.2 -1.2
v 0.9 2.2 -1.3
v 1 2.2 -1.3

# faces
f 4/10/1 2/10/1 1/10/1
f 5/11/1 3/11/1 2/11/1
f 5/10/1 2/10/1 4/10/1
f 6/11/1 3/11/1 5/11/1
f 8/11/1 7/11/1 6/11/1
f 9/11/1 7/11/1 8/11/1
f 11/11/1 10/11/1 9/11/1
f 12/11/1 10/11/1 11/11/1
f 15/10/1 14/10/1 13/10/1
f 16/10/1 14/10/1 15/10/1
f 20/9/1 18/9/1 17/9/1
f 21/9/1 18/9/1 20/9/1
f 23/9/1 20/9/1 19/9/1
f 23/9/1 22/9/1 21/9/1
f 23/9/1 21/9/1 20/9/1
f 24/9/1 22/9/1 23/9/1
f 25/9/1 22/9/1 24/9/1
f 27/11/1 25/11/1 24/11/1
f 28/11/1 25/11/1 27/11/1
f 29/11/1 27/11/1 26/11/1
f 30/11/1 25/11/1 28/11/1
f 31/11/1 25/11/1 30/11/1
f 32/11/1 29/11/1 26/11/1
f 32/11/1 30/11/1 29/11/1
f 33/11/1 30/11/1 32/11/1
f 34/11/1 30/11/1 33/11/1
f 35/11/1 25/11/1 31/11/1
f 36/11/1 25/11/1 35/11/1
f 37/10/1 34/10/1 33/10/1
f 37/10/1 36/10/1 35/10/1
f 37/10/1 35/10/1 34/10/1
f 38/10/1 36/10/1 37/10/1
f 40/10/1 36/10/1 38/10/1
f 41/10/1 40/10/1 39/10/1
f 42/10/1 36/10/1 40/10/1
f 42/10/1 40/10/1 41/10/1
f 45/11/1 44/11/1 43/11/1
f 46/11/1 44/11/1 45/11/1
f 49/10/1 48/10/1 47/10/1
f 50/10/1 48/10/1 49/10/1
f 53/5/1 52/5/1 51/5/1
f 54/5/1 52/5/1 53/5/1
f 57/5/1 56/5/1 55/5/1
f 58/5/1 56/5/1 57/5/1
f 62/11/1 60/11/1 59/11/1
f 63/11/1 60/11/1 62/11/1
f 65/10/1 62/10/1 61/10/1
f 66/3/1 63/3/1 62/3/1
f 66/10/1 62/10/1 65/10/1
f 67/10/1 64/10/1 63/10/1
f 67/3/1 63/3/1 66/3/1
f 68/10/1 64/10/1 67/10/1
f 71/5/1 70/5/1 69/5/1
f 72/5/1 70/5/1 71/5/1
f 73/10/2 74/10/2 75/10/2
f 75/10/2 74/10/2 76/10/2
f 77/11/2 78/11/2 80/11/2
f 80/11/2 78/11/2 81/11/2
f 79/9/2 80/9/2 83/9/2
f 81/9/2 82/9/2 83/9/2
f 80/9/2 81/9/2 83/9/2
f 83/9/2 82/9/2 84/9/2
f 85/5/2 86/5/2 87/5/2
f 87/5/2 86/5/2 88/5/2
f 89/5/2 90/5/2 91/5/2
f 91/5/2 90/5/2 92/5/2
f 93/11/2 94/11/2 95/11/2
f 95/11/2 94/11/2 96/11/2
f 97/10/2 98/10/2 101/10/2
f 101/10/2 98/10/2 102/10/2
f 99/10/2 100/10/2 104/10/2
f 104/10/2 100/10/2 105/10/2
f 103/10/2 104/10/2 108/10/2
f 108/10/2 104/10/2 109/10/2
f 106/5/2 107/5/2 110/5/2
f 110/5/2 107/5/2 111/5/2
f 112/10/2 113/10/2 115/10/2
f 115/10/2 113/10/2 116/10/2
f 116/10/2 113/10/2 117/10/2
f 117/10/2 113/10/2 118/10/2
f 114/9/2 115/9/2 120/9/2
f 115/9/2 116/9/2 120/9/2
f 120/9/2 116/9/2 121/9/2
f 118/9/2 119/9/2 122/9/2
f 117/9/2 118/9/2 122/9/2
f 122/9/2 119/9/2 123/9/2
f 120/11/2 121/11/2 124/11/2
f 124/11/2 121/11/2 125/11/2
f 122/11/2 123/11/2 126/11/2
f 126/11/2 123/11/2 127/11/2
f 126/10/2 127/10/2 130/10/2
f 128/10/2 129/10/2 131/10/2
f 130/10/2 127/10/2 132/10/2
f 132/10/2 127/10/2 133/10/2
f 131/10/2 132/10/2 133/10/2
f 133/10/2 127/10/2 134/10/2
f 128/10/2 131/10/2 135/10/2
f 131/10/2 133/10/2 135/10/2
f 135/10/2 133/10/2 136/10/2
f 137/10/2 138/10/2 139/10/2
f 139/10/2 138/10/2 140/10/2
f 139/11/2 140/11/2 141/11/2
f 141/11/2 140/11/2 142/11/2
f 143/10/2 144/10/2 145/10/2
f 145/10/2 144/10/2 146/10/2
f 149/10/3 148/10/3 147/10/3
f 150/10/3 148/10/3 149/10/3
f 155/9/3 152/9/3 151/9/3
f 155/11/3 154/11/3 153/11/3
f 155/11/3 153/11/3 152/11/3
f 156/11/3 154/11/3 155/11/3
f 157/11/3 154/11/3 156/11/3
f 158/11/3 154/11/3 157/11/3
f 159/9/3 155/9/3 151/9/3
f 159/7/3 156/7/3 155/7/3
f 160/8/3 157/8/3 156/8/3
f 160/7/3 156/7/3 159/7/3
f 161/7/3 158/7/3 157/7/3
f 161/8/3 157/8/3 160/8/3
f 162/7/3 158/7/3 161/7/3
f 163/8/3 160/8/3 159/8/3
f 163/9/3 159/9/3 151/9/3
f 164/7/3 161/7/3 160/7/3
f 164/8/3 160/8/3 163/8/3
f 165/8/3 162/8/3 161/8/3
f 165/7/3 161/7/3 164/7/3
f 166/8/3 162/8/3 165/8/3
f 167/9/3 163/9/3 151/9/3
f 168/11/3 164/11/3 163/11/3
f 168/9/3 163/9/3 167/9/3
f 168/11/3 165/11/3 164/11/3
f 168/11/3 166/11/3 165/11/3
f 169/11/3 166/11/3 168/11/3
f 176/11/3 171/11/3 170/11/3
f 177/11/3 171/11/3 176/11/3
f 179/10/3 173/10/3 172/10/3
f 180/10/3 173/10/3 179/10/3
f 182/10/3 181/10/3 180/10/3
f 182/10/3 180/10/3 179/10/3
f 182/10/3 179/10/3 178/10/3
f 183/10/3 181/10/3 182/10/3
f 184/9/3 175/9/3 174/9/3
f 185/9/3 175/9/3 184/9/3
f 186/10/3 182/10/3 178/10/3
f 187/10/3 182/10/3 186/10/3
f 188/10/3 182/10/3 187/10/3
f 189/5/3 183/5/3 182/5/3
f 189/10/3 182/10/3 188/10/3
f 190/10/3 181/10/3 183/10/3
f 190/5/3 183/5/3 189/5/3
f 191/10/3 187/10/3 186/10/3
f 194/10/3 187/10/3 191/10/3
f 195/6/3 188/6/3 187/6/3
f 195/10/3 187/10/3 194/10/3
f 196/10/3 189/10/3 188/10/3
f 196/6/3 188/6/3 195/6/3
f 196/10/3 190/10/3 189/10/3
f 197/10/3 190/10/3 196/10/3
f 198/10/3 181/10/3 190/10/3
f 198/10/3 190/10/3 197/10/3
f 199/10/3 195/10/3 194/10/3
f 199/10/3 197/10/3 196/10/3
f 199/10/3 196/10/3 195/10/3
f 200/10/3 197/10/3 199/10/3
f 201/5/3 198/5/3 197/5/3
f 201/10/3 197/10/3 200/10/3
f 202/10/3 181/10/3 198/10/3
f 202/5/3 198/5/3 201/5/3
f 203/10/3 193/10/3 192/10/3
f 204/10/3 193/10/3 203/10/3
f 205/10/3 201/10/3 200/10/3
f 205/10/3 202/10/3 201/10/3
f 206/10/3 181/10/3 202/10/3
f 206/10/3 202/10/3 205/10/3
f 209/11/3 208/11/3 207/11/3
f 210/11/3 208/11/3 209/11/3
f 215/11/3 212/11/3 211/11/3
f 216/11/3 212/11/3 215/11/3
f 217/5/3 214/5/3 213/5/3
f 218/5/3 214/5/3 217/5/3
f 223/11/3 220/11/3 219/11/3
f 224/11/3 220/11/3 223/11/3
f 225/5/3 222/5/3 221/5/3
f 226/5/3 222/5/3 225/5/3
f 232/10/3 228/10/3 227/10/3
f 233/11/3 229/11/3 228/11/3
f 233/10/3 228/10/3 232/10/3
f 234/11/3 229/11/3 233/11/3
f 235/10/3 231/10/3 230/10/3
f 236/10/3 231/10/3 235/10/3
f 239/10/3 238/10/3 237/10/3
f 240/10/3 238/10/3 239/10/3
f 243/5/3 242/5/3 241/5/3
f 244/5/3 242/5/3 243/5/3
f 245/11/4 246/11/4 247/11/4
f 247/11/4 246/11/4 248/11/4
f 249/11/4 250/11/4 251/11/4
f 251/11/4 250/11/4 252/11/4
f 253/11/4 254/11/4 257/11/4
f 257/11/4 254/11/4 258/11/4
f 255/10/4 256/10/4 259/10/4
f 259/10/4 256/10/4 260/10/4
f 261/11/4 262/11/4 265/11/4
f 265/11/4 262/11/4 266/11/4
f 263/5/4 264/5/4 267/5/4
f 267/5/4 264/5/4 268/5/4
f 269/11/4 270/11/4 273/11/4
f 273/11/4 270/11/4 274/11/4
f 271/5/4 272/5/4 275/5/4
f 275/5/4 272/5/4 276/5/4
f 277/10/4 278/10/4 282/10/4
f 278/11/4 279/11/4 283/11/4
f 282/10/4 278/10/4 283/10/4
f 283/11/4 279/11/4 284/11/4
f 280/10/4 281/10/4 285/10/4
f 285/10/4 281/10/4 286/10/4
f 287/9/4 288/9/4 289/9/4
f 289/9/4 288/9/4 290/9/4
f 291/10/4 292/10/4 295/10/4
f 295/10/4 292/10/4 296/10/4
f 293/10/4 294/10/4 297/10/4
f 297/10/4 294/10/4 298/10/4
f 300/11/4 301/11/4 303/11/4
f 301/10/4 302/10/4 303/10/4
f 303/10/4 302/10/4 304/10/4
f 304/10/4 302/10/4 305/10/4
f 304/10/4 305/10/4 307/10/4
f 305/5/4 306/5/4 307/5/4
f 307/5/4 306/5/4 308/5/4
f 300/11/4 303/11/4 309/11/4
f 304/10/4 307/10/4 310/10/4
f 310/10/4 307/10/4 311/10/4
f 299/9/4 300/9/4 312/9/4
f 300/11/4 309/11/4 313/11/4
f 312/9/4 300/9/4 313/9/4
f 309/10/4 310/10/4 314/10/4
f 313/11/4 309/11/4 314/11/4
f 314/10/4 310/10/4 315/10/4
f 316/10/4 317/10/4 318/10/4
f 318/10/4 317/10/4 319/10/4
f 324/11/5 321/11/5 320/11/5
f 325/11/5 321/11/5 324/11/5
f 326/11/5 323/11/5 322/11/5
f 327/11/5 323/11/5 326/11/5
f 332/9/5 329/9/5 328/9/5
f 333/9/5 329/9/5 332/9/5
f 334/10/5 331/10/5 330/10/5
f 335/10/5 331/10/5 334/10/5
f 336/9/5 332/9/5 328/9/5
f 339/10/5 331/10/5 335/10/5
f 340/9/5 337/9/5 336/9/5
f 340/9/5 336/9/5 328/9/5
f 341/9/5 337/9/5 340/9/5
f 342/10/5 339/10/5 338/10/5
f 343/10/5 331/10/5 339/10/5
f 343/10/5 339/10/5 342/10/5
f 346/9/5 345/9/5 344/9/5
f 347/9/5 345/9/5 346/9/5
f 348/9/5 345/9/5 347/9/5
f 349/9/5 345/9/5 348/9/5
f 350/9/5 345/9/5 349/9/5
f 351/4/5 348/4/5 347/4/5
f 351/2/5 349/2/5 348/2/5
f 352/2/5 349/2/5 351/2/5
f 355/4/5 352/4/5 351/4/5
f 356/10/5 354/10/5 353/10/5
f 357/10/5 354/10/5 356/10/5
f 359/4/5 355/4/5 351/4/5
f 359/4/5 351/4/5 347/4/5
f 360/4/5 355/4/5 359/4/5
f 362/9/5 359/9/5 358/9/5
f 362/9/5 361/9/5 360/9/5
f 362/9/5 360/9/5 359/9/5
f 363/9/5 361/9/5 362/9/5
f 366/10/5 365/10/5 364/10/5
f 367/10/5 365/10/5 366/10/5
f 368/11/5 367/11/5 366/11/5
f 369/11/5 367/11/5 368/11/5
f 372/11/5 371/11/5 370/11/5
f 373/11/5 371/11/5 372/11/5
f 376/11/5 375/11/5 374/11/5
f 377/11/5 375/11/5 376/11/5
f 380/10/5 379/10/5 378/10/5
f 381/10/5 379/10/5 380/10/5
f 386/10/5 385/10/5 384/10/5
f 388/10/5 383/10/5 382/10/5
f 389/10/5 383/10/5 388/10/5
f 390/10/5 387/10/5 386/10/5
f 390/10/5 386/10/5 384/10/5
f 391/10/5 387/10/5 390/10/5
f 392/10/5 387/10/5 391/10/5
f 393/10/6 394/10/6 395/10/6
f 395/10/6 394/10/6 396/10/6
f 395/11/6 396/11/6 397/11/6
f 397/11/6 396/11/6 398/11/6
f 399/11/6 400/11/6 401/11/6
f 401/11/6 400/11/6 402/11/6
f 403/11/6 404/11/6 408/11/6
f 404/7/6 405/7/6 409/7/6
f 408/11/6 404/11/6 409/11/6
f 405/8/6 406/8/6 410/8/6
f 409/7/6 405/7/6 410/7/6
f 406/11/6 407/11/6 411/11/6
f 410/8/6 406/8/6 411/8/6
f 411/11/6 407/11/6 412/11/6
f 412/11/6 407/11/6 415/11/6
f 413/11/6 414/11/6 417/11/6
f 417/11/6 414/11/6 418/11/6
f 415/11/6 416/11/6 419/11/6
f 412/11/6 415/11/6 419/11/6
f 419/11/6 416/11/6 420/11/6
f 420/11/6 416/11/6 421/11/6
f 422/10/6 423/10/6 426/10/6
f 426/10/6 423/10/6 427/10/6
f 424/10/6 425/10/6 428/10/6
f 428/10/6 425/10/6 429/10/6
f 430/10/6 431/10/6 433/10/6
f 433/10/6 431/10/6 434/10/6
f 432/10/6 433/10/6 435/10/6
f 435/10/6 433/10/6 436/10/6
f 437/10/6 438/10/6 439/10/6
f 439/10/6 438/10/6 440/10/6
f 440/10/6 438/10/6 441/10/6
f 441/10/6 438/10/6 442/10/6
f 437/10/6 439/10/6 443/10/6
f 440/10/6 441/10/6 444/10/6
f 444/10/6 441/10/6 445/10/6
f 442/10/6 438/10/6 446/10/6
f 444/10/6 445/10/6 447/10/6
f 445/10/6 446/10/6 447/10/6
f 443/10/6 444/10/6 447/10/6
f 447/10/6 446/10/6 448/10/6
f 446/10/6 438/10/6 449/10/6
f 448/10/6 446/10/6 449/10/6
f 449/10/6 438/10/6 450/10/6
f 437/10/6 443/10/6 451/10/6
f 443/10/6 447/10/6 451/10/6
f 451/10/6 447/10/6 452/10/6
f 448/10/6 449/10/6 453/10/6
f 453/10/6 449/10/6 454/10/6
f 455/5/6 456/5/6 459/5/6
f 459/5/6 456/5/6 460/5/6
f 457/5/6 458/5/6 461/5/6
f 461/5/6 458/5/6 462/5/6
f 463/5/6 464/5/6 465/5/6
f 465/5/6 464/5/6 466/5/6
